<?xml version="1.0" encoding="UTF-8"?>
<svg width="295px" height="277px" viewBox="0 0 295 277" version="1.1" xmlns="http://www.w3.org/2000/svg" xmlns:xlink="http://www.w3.org/1999/xlink">
    <!-- Generator: Sketch 48.1 (47250) - http://www.bohemiancoding.com/sketch -->
    <title>Group 8</title>
    <desc>Created with Sketch.</desc>
    <defs>
        <filter x="-36.7%" y="-36.7%" width="173.4%" height="173.4%" filterUnits="objectBoundingBox" id="filter-1">
            <feGaussianBlur stdDeviation="22.6367188" in="SourceGraphic"></feGaussianBlur>
        </filter>
        <polygon id="path-2" points="0.000141732284 0.170053354 35.8290709 0.170053354 35.8290709 35.8155488 0.000141732284 35.8155488"></polygon>
        <path d="M0.247309542,8.05468528 C-0.538114605,5.9864691 0.609457033,4.1448516 2.80876503,3.94980628 C2.80876503,3.94980628 43.5695978,1.73763659e-15 87.3251733,0 C131.080749,0 170.841693,3.94239335 170.841693,3.94239335 C173.041708,4.1453333 174.17675,5.97696928 173.376431,8.03462193 L166.273916,26.2954685 C165.473797,28.352604 165.462113,31.6947301 166.24731,33.758982 L173.403037,52.5711084 C174.188461,54.6359576 173.040295,56.1239396 170.839472,55.9043827 C170.839472,55.9043827 130.824353,51.5299921 86.8246217,51.5299921 C42.8248899,51.5299921 2.81078082,55.9043827 2.81078082,55.9043827 C0.609590582,56.1283153 -0.526403823,54.6455076 0.279259178,52.5775701 L7.37108746,34.3746022 C8.17415691,32.3133217 8.19204215,28.9751326 7.4030371,26.897487 L0.247309542,8.05468528 Z" id="path-4"></path>
    </defs>
    <g id="实时绩效-小分-copy-14" stroke="none" stroke-width="1" fill="none" fill-rule="evenodd" transform="translate(-40.000000, 0.000000)">
        <g id="Group-8" transform="translate(95.000000, 37.000000)">
            <circle id="Oval-35" fill="#ABABAB" opacity="0.399513134" filter="url(#filter-1)" cx="92.5" cy="92.5" r="92.5"></circle>
            <rect id="Rectangle-34" fill="#FBBB74" x="35" y="121" width="112" height="27.2393921"></rect>
            <text id="悬梁刺股-copy" font-family="HYk2gj, HYLingXinJ" font-size="26" font-weight="normal" fill="#FFFFFF">
                <tspan x="40" y="150">悬梁刺股</tspan>
            </text>
            <g id="Group-13-Copy" transform="translate(12.000000, 12.000000)" fill="#A3ACAD" stroke="#D4D1D1" stroke-width="4">
                <circle id="Oval-16" cx="80.5" cy="80.5" r="80.5"></circle>
            </g>
            <rect id="Rectangle-3" fill="#69748A" x="80" y="73" width="62" height="64" rx="10"></rect>
            <rect id="Rectangle-3" fill="#454C5A" x="80" y="79" width="56" height="58" rx="8"></rect>
            <rect id="Rectangle-3" stroke="#A1AABE" stroke-width="0.5" x="84.25" y="76.25" width="55.5" height="57.5" rx="10"></rect>
            <g id="Group-37" transform="translate(68.000000, 11.000000)">
                <path d="M14.6014553,80.8585435 C14.2482572,76.3254803 17.6330755,72.389238 22.1716129,72.0659913 L54.067366,69.7942913 C58.6014467,69.471362 62.3766448,72.9008768 62.4990969,77.4391248 L63.7805334,124.930984 C63.9031691,129.476038 60.3125888,133.160532 55.7681158,133.160532 L26.9110857,133.160532 C22.3633139,133.160532 18.3905516,129.48908 18.0370947,124.952695 L14.6014553,80.8585435 Z" id="Rectangle-11" fill="#DBE9F9" transform="translate(39.179932, 101.467787) scale(-1, 1) translate(-39.179932, -101.467787) "></path>
                <rect id="Rectangle" fill="#535C6E" x="17" y="71" width="7" height="40" rx="3.5"></rect>
                <g id="Group-33" transform="translate(34.044604, 102.112312) rotate(7.000000) translate(-34.044604, -102.112312) translate(23.044604, 67.112312)">
                    <path d="M12.5866768,18.3963793 L18.6968003,60.0822325 C18.8059688,60.8270262 18.5648587,61.9520002 18.1618153,62.5893198 L13.6253219,69.7627296 L9.08885621,62.5893198 C8.68422609,61.9494874 8.33783611,60.8109609 8.31550685,60.0576287 L7.09968648,19.0389589 C6.6456483,18.8583626 6.24187675,18.5216122 6.03785757,18.1079873 L4.32212678,14.6295455 C3.98685022,13.9498118 4.3318903,13.3458822 5.07991083,13.2817358 L14.4533288,12.4779198 C15.2071179,12.4132788 15.5697011,12.9209927 15.2625997,13.6132412 L13.6283085,17.2971559 C13.4396773,17.7223564 13.0400809,18.1266639 12.5866768,18.3963793 Z" id="Combined-Shape" fill="#215382"></path>
                    <rect id="Rectangle-62" fill="#F8E0A0" x="2" y="0.493801581" width="15.9160389" height="11.978571"></rect>
                    <path d="M1.49079908,7.45682749 L0.862769852,17.2255173 L9.02714976,12.813851 L18.4475881,16.5952793 C18.4475881,16.5952793 21.0084098,7.59296328 21.0185105,5.05912602 C21.0286113,2.52528875 18.5018119,2.99288898 18.5018119,2.99288898 L9.02714976,10.9231368 L1.49079908,7.45682749 Z" id="Path-9" fill="#FFFFFF"></path>
                </g>
                <path d="M18.6711274,77.6163516 L18.6711274,84.9019277 C18.6711274,87.5194037 16.5530935,89.6412873 13.9397952,89.6412873 L13.9119912,89.6412873 C11.2989486,89.6412873 9.18065901,87.5237853 9.18065901,84.9019277 L9.18065901,74.5941476 C9.18065901,74.4964372 9.18361055,74.3994173 9.18942923,74.3031727 C6.6393758,71.3354926 6.04580026,67.6175301 7.94877016,65.5768447 C10.0610658,63.311685 14.4494689,63.9708664 17.7505428,67.0491676 C21.0516167,70.1274688 22.0153119,74.4591998 19.9030162,76.7243595 C19.5505521,77.102331 19.1347136,77.3988793 18.6711274,77.6163516 Z" id="Combined-Shape" fill="#F8E0A0"></path>
                <rect id="Rectangle" fill="#535C6E" x="49" y="71" width="7" height="36" rx="3.5"></rect>
                <rect id="Rectangle-4" fill="#EFEFEF" x="48" y="95" width="9" height="4" rx="2"></rect>
                <rect id="Rectangle-4" fill="#4C4949" x="48.5" y="95.5" width="8" height="3" rx="1.5"></rect>
                <rect id="Rectangle-4" fill="#EFEFEF" x="16" y="95" width="9" height="4" rx="2"></rect>
                <rect id="Rectangle-4" fill="#4C4949" x="16.5" y="95.5" width="8" height="3" rx="1.5"></rect>
                <g id="Group-34" transform="translate(22.984977, 69.790424)">
                    <path d="M20.9789301,45.3557608 C22.4043698,46.6810459 23.294786,48.564396 23.294786,50.6537589 C23.294786,54.6658914 20.0114466,57.9183673 15.9612423,57.9183673 C11.9110379,57.9183673 8.62769852,54.6658914 8.62769852,50.6537589 C8.62769852,48.9728278 9.2040204,47.4252385 10.1716025,46.1943132 L10.1716025,30.389325 L20.9789301,30.389325 L20.9789301,45.3557608 Z" id="Combined-Shape" fill="#FADF94" transform="translate(15.961242, 44.153846) rotate(73.000000) translate(-15.961242, -44.153846) "></path>
                    <path d="M48.3593634,38.3870122 C48.5187525,39.1457981 48.5515608,39.9440513 48.4376212,40.7547734 C47.9081035,44.5224878 44.4252675,47.1476716 40.6475859,46.6167531 L15.6012664,43.0967224 C11.8284664,42.5664899 9.20034413,39.074649 9.7287844,35.3146011 C10.2583021,31.5468867 13.7411381,28.9217029 17.5188197,29.4526214 L34.581174,31.8505789 L34.581174,13.3068331 C34.581174,9.49695568 37.6732686,6.40843979 41.4702687,6.40843979 C45.2750106,6.40843979 48.3593634,9.49202606 48.3593634,13.3068331 L48.3593634,38.3870122 Z" id="Combined-Shape" fill="#BCCADB" transform="translate(29.083203, 26.538411) rotate(-23.000000) translate(-29.083203, -26.538411) "></path>
                </g>
                <rect id="Rectangle-42" fill="#BCCADB" transform="translate(10.715628, 96.460769) rotate(9.000000) translate(-10.715628, -96.460769) " x="4.2448544" y="79.2551175" width="12.9415478" height="34.411303" rx="6.47077389"></rect>
                <g id="Group-36" transform="translate(41.760247, 43.999703) rotate(-10.000000) translate(-41.760247, -43.999703) translate(6.760247, 6.499703)">
                    <rect id="Rectangle-52-Copy-2" fill="#753B16" transform="translate(52.868620, 46.736339) rotate(35.000000) translate(-52.868620, -46.736339) " x="47.4830385" y="32.3762341" width="10.7711625" height="28.7202098" rx="5.38558124"></rect>
                    <path d="M15.2480373,50.5773234 C14.9531215,50.1271878 14.745864,49.61382 14.6505385,49.0610392 C13.9615767,49.4504004 13.1654642,49.672643 12.3173863,49.672643 C9.6967952,49.672643 7.57238639,47.5505993 7.57238639,44.9329258 C7.57238639,42.3152522 9.6967952,40.1932085 12.3173863,40.1932085 C13.1413079,40.1932085 13.9161822,40.4029709 14.5914065,40.7719491 L14.5914065,20.2233947 C14.5914065,17.9975843 16.3887642,16.1932085 18.61809,16.1932085 L51.7774042,16.1932085 C54.00128,16.1932085 55.8040876,17.9885565 55.8040876,20.2233947 L55.8040876,48.3667402 C55.8040876,48.9702529 55.6719486,49.5427823 55.4348883,50.056761 C53.9461225,61.979613 47.7833164,68.0206503 38.3351454,68.2244835 C28.9301614,68.4273849 18.0345435,61.0363386 15.2480373,50.5773234 Z" id="Combined-Shape-Copy-10" fill="#FFEDBD" transform="translate(31.688237, 42.210884) scale(-1, 1) rotate(-18.000000) translate(-31.688237, -42.210884) "></path>
                    <path d="M22.5397777,31.4463452 L18.8234237,44.5603129 L12.9071129,31.2749518 C8.4008509,30.1901478 5.39322813,26.2663533 5.80028733,22.5599379 C5.80028733,22.5599379 5.7807169,22.2240531 5.80028733,22.5599379 C5.81985776,22.8958227 5.80302223,22.5676543 5.80302223,22.5676543 C7.20812481,16.8180179 12.8557385,13.8372998 16.3575464,15.1423812 L18.3092909,14.051221 C19.0137232,13.6573946 20.2403101,13.2646481 21.0491948,13.1739697 L55.274581,9.33719793 C61.1742932,8.67582193 65.9544157,12.9521667 65.9512816,18.8921679 L65.9507238,19.9494294 C65.9475905,25.8878696 61.1370495,30.7843858 55.1954265,30.8862871 L22.5397777,31.4463452 Z" id="Combined-Shape-Copy-11" fill="#7F411A" transform="translate(35.961909, 26.417765) scale(-1, 1) rotate(-16.000000) translate(-35.961909, -26.417765) "></path>
                    <circle id="Oval-22-Copy-5" fill="#000000" transform="translate(12.326352, 35.484808) scale(-1, 1) translate(-12.326352, -35.484808) " cx="12.3263518" cy="35.4848078" r="1.5"></circle>
                    <circle id="Oval-22-Copy-6" fill="#000000" transform="translate(31.326352, 41.484808) scale(-1, 1) translate(-31.326352, -41.484808) " cx="31.3263518" cy="41.4848078" r="1.5"></circle>
                    <path d="M11.8371845,32.1761372 C11.8371845,32.1761372 13.0288145,32.5709977 15.2134695,32.1761372 C17.3981245,31.7812766 18.5897544,30.596695 18.5897544,30.596695" id="Path-5-Copy-3" stroke="#90471A" stroke-width="3" stroke-linecap="round" transform="translate(15.213469, 31.474163) rotate(9.000000) translate(-15.213469, -31.474163) "></path>
                    <path d="M30.7822982,38.4540926 C30.7822982,38.4540926 32.3371947,39.2046578 35.1878382,38.4540926 C38.0384818,37.7035274 40.2354508,36.7638866 40.2354508,36.7638866" id="Path-5-Copy-4" stroke="#90471A" stroke-width="3" stroke-linecap="round" transform="translate(35.508875, 37.775782) scale(-1, 1) rotate(-18.000000) translate(-35.508875, -37.775782) "></path>
                    <ellipse id="Oval-23-Copy-6" fill="#FFCF4B" transform="translate(35.919072, 51.915640) scale(-1, 1) translate(-35.919072, -51.915640) " cx="35.9190718" cy="51.9156404" rx="3.91907177" ry="3.91564042"></ellipse>
                    <ellipse id="Oval-23-Copy-7" fill="#FFCF4B" transform="translate(8.999464, 42.283815) scale(-1, 1) translate(-8.999464, -42.283815) " cx="8.99946394" cy="42.2838152" rx="2.71856506" ry="2.71618482"></ellipse>
                    <path d="M13.3764045,54.3763736 C13.3764045,54.3763736 14.773714,54.081863 17.2759231,54.737185 C19.7781322,55.3925069 20.9044944,56.6346154 20.9044944,56.6346154" id="Line" stroke="#333333" stroke-width="1.6" stroke-linecap="round"></path>
                </g>
            </g>
            <g id="Page-1" transform="translate(35.000000, 36.000000)">
                <g id="Group-3" transform="translate(0.000000, 0.111959)">
                    <mask id="mask-3" fill="white">
                        <use xlink:href="#path-2"></use>
                    </mask>
                    <g id="Clip-2"></g>
                    <path d="M35.8292126,17.9927447 C35.8292126,27.8360983 27.8085827,35.8156334 17.9145354,35.8156334 C8.02077165,35.8156334 0.000141732284,27.8360983 0.000141732284,17.9927447 C0.000141732284,8.14939101 8.02077165,0.169855945 17.9145354,0.169855945 C27.8085827,0.169855945 35.8292126,8.14939101 35.8292126,17.9927447" id="Fill-1" fill="#CCCCCC" mask="url(#mask-3)"></path>
                </g>
                <path d="M32.8023213,18.1047035 C32.8023213,26.2847492 26.1369354,32.916266 17.9144787,32.916266 C9.69230551,32.916266 3.02691969,26.2847492 3.02691969,18.1047035 C3.02691969,9.92465777 9.69230551,3.29314101 17.9144787,3.29314101 C26.1369354,3.29314101 32.8023213,9.92465777 32.8023213,18.1047035" id="Fill-4" fill="#F0F0F0"></path>
                <path d="M19.062822,5.41125 C19.062822,6.1120503 18.4916409,6.68030488 17.7872315,6.68030488 C17.082822,6.68030488 16.5116409,6.1120503 16.5116409,5.41125 C16.5116409,4.7104497 17.082822,4.14219512 17.7872315,4.14219512 C18.4916409,4.14219512 19.062822,4.7104497 19.062822,5.41125" id="Fill-6" fill="#999999"></path>
                <path d="M32.0849008,17.8024992 C32.0849008,18.5032995 31.5137197,19.0715541 30.8093102,19.0715541 C30.1049008,19.0715541 29.5337197,18.5032995 29.5337197,17.8024992 C29.5337197,17.1016989 30.1049008,16.5334444 30.8093102,16.5334444 C31.5137197,16.5334444 32.0849008,17.1016989 32.0849008,17.8024992" id="Fill-8" fill="#999999"></path>
                <path d="M6.2896252,17.8024992 C6.2896252,18.5032995 5.71844409,19.0715541 5.01403465,19.0715541 C4.3096252,19.0715541 3.73844409,18.5032995 3.73844409,17.8024992 C3.73844409,17.1016989 4.3096252,16.5334444 5.01403465,16.5334444 C5.71844409,16.5334444 6.2896252,17.1016989 6.2896252,17.8024992" id="Fill-10" fill="#999999"></path>
                <path d="M19.062822,30.7923476 C19.062822,31.4931479 18.4916409,32.0614024 17.7872315,32.0614024 C17.082822,32.0614024 16.5116409,31.4931479 16.5116409,30.7923476 C16.5116409,30.0915473 17.082822,29.5232927 17.7872315,29.5232927 C18.4916409,29.5232927 19.062822,30.0915473 19.062822,30.7923476" id="Fill-12" fill="#999999"></path>
                <path d="M18.5381402,11.2672161 L9.61864413,18.6587557 C9.22576224,18.9841978 8.64182523,18.9311795 8.31442366,18.5403106 L8.31442366,18.5403106 C7.98730555,18.1494417 8.04031342,17.5684966 8.43347878,17.2430545 L17.3529748,9.85151485 C17.7458567,9.52579077 18.3297937,9.57880906 18.6569118,9.96967796 L18.6569118,9.96967796 C18.9843134,10.3608289 18.9310221,10.941492 18.5381402,11.2672161" id="Fill-14" fill="#ACCCE5" transform="translate(13.485738, 14.255019) scale(-1, 1) translate(-13.485738, -14.255019) "></path>
                <path d="M19.8081656,24.9170894 L15.3586223,21.0633927 C14.9731105,20.7292083 14.932575,20.1474171 15.2681971,19.7635985 L15.2681971,19.7635985 C15.6041026,19.3797799 16.18889,19.3397342 16.5746853,19.6736366 L21.0242286,23.5273333 C21.4100239,23.8615177 21.4502758,24.4433089 21.1146538,24.8271275 L21.1146538,24.8271275 C20.7787483,25.2109461 20.1939609,25.2512738 19.8081656,24.9170894" id="Fill-16" fill="#4F9585" transform="translate(18.191473, 22.295420) rotate(-317.000000) translate(-18.191473, -22.295420) "></path>
                <path d="M20.0031024,18.0123445 C20.0031024,19.2297912 19.0109764,20.2168338 17.7872598,20.2168338 C16.5635433,20.2168338 15.5714173,19.2297912 15.5714173,18.0123445 C15.5714173,16.7948979 16.5635433,15.8078552 17.7872598,15.8078552 C19.0109764,15.8078552 20.0031024,16.7948979 20.0031024,18.0123445" id="Fill-18" fill="#31363C"></path>
            </g>
            <g id="Group-6" transform="translate(3.000000, 118.000000)">
                <g id="Group-5">
                    <g id="Rectangle-12-Copy">
                        <use fill="#FFFFFF" fill-rule="evenodd" xlink:href="#path-4"></use>
                        <path stroke="#A6AEAE" stroke-width="4" d="M2.11702615,7.34464317 L9.27275371,26.1874449 C10.2364124,28.7249967 10.2186728,32.5748997 9.23465046,35.1006414 L2.14282217,53.3036093 C1.88116517,53.9752181 1.89065737,53.9876663 2.59343333,53.9162277 C2.67410025,53.9074091 2.83073876,53.8905836 3.06115147,53.8662852 C3.44358628,53.8259552 3.89539731,53.7792208 4.41438734,53.7266159 C5.89528412,53.5765122 7.61850869,53.4093378 9.56648628,53.2293657 C15.1289608,52.7154528 21.3793339,52.2016489 28.1770739,51.7221446 C47.6000946,50.3520683 67.5231773,49.5299921 86.8246217,49.5299921 C106.126065,49.5299921 126.049337,50.3520682 145.472672,51.7221444 C152.270522,52.2016487 158.521013,52.7154525 164.083605,53.2293653 C166.031624,53.4093374 167.754887,53.5765117 169.235818,53.7266155 C169.75482,53.7792203 170.206641,53.8259547 170.589085,53.8662847 C170.819503,53.8905831 170.976146,53.9074085 171.038009,53.9142613 C171.764187,53.9867057 171.789293,53.9540942 171.533705,53.2821621 L164.377977,34.4700357 C163.416696,31.9428655 163.430353,28.0890467 164.409943,25.5704807 L171.512459,7.30963408 C171.830593,6.49169969 171.535192,6.01485615 170.644355,5.93263405 C170.568987,5.92516106 170.418159,5.91046695 170.194057,5.88903295 C169.819109,5.85317144 169.375253,5.81153217 168.864673,5.76459633 C167.404114,5.63033218 165.702856,5.48065402 163.778379,5.31941117 C158.276976,4.8584747 152.092256,4.39744807 145.364115,3.96711835 C126.141628,2.73765425 106.421485,2 87.3251733,2 C68.2284114,2 48.3200874,2.73908188 28.7844925,3.97093877 C21.9465382,4.40211995 15.644191,4.86406471 10.0251658,5.32592688 C8.05945697,5.48750056 6.3198978,5.6374894 4.82494462,5.77203673 C4.30229627,5.81907563 3.84771453,5.86080832 3.46350612,5.89675271 C3.23380694,5.91824208 3.07909122,5.93297919 2.98544133,5.94198737 C2.10912316,6.01970352 1.80129123,6.51323496 2.11702615,7.34464317 Z"></path>
                    </g>
                    <text id="得过且过" font-family="HYk2gj, HYLingXinJ" font-size="26" font-weight="normal" fill="#A6AEAF">
                        <tspan x="36" y="35">得过且过</tspan>
                    </text>
                </g>
            </g>
            <rect id="Rectangle-6" fill="#5BBFA7" x="43" y="93" width="10" height="18" rx="5"></rect>
            <rect id="Rectangle-6-Copy" fill="#499C89" x="49" y="89" width="10" height="18" rx="5"></rect>
            <path d="M42.0879008,102.997165 C42.0393545,102.446446 42.4449463,102 42.9933977,102 L59.0066023,102 C59.5552407,102 59.9584266,102.454957 59.9097169,102.98801 L58.5359978,118.021256 C58.4861358,118.566919 57.9993932,119.020527 57.4440628,119.034538 L44.5341991,119.360259 C43.9810021,119.374217 43.4931238,118.938303 43.4446465,118.388366 L42.0879008,102.997165 Z" id="Rectangle-37" fill="#D8D8D8"></path>
            <path d="M50,89 L50.4914333,91.1988684" id="Path-83" stroke="#E6E2B0" stroke-width="0.6" stroke-linecap="round" stroke-linejoin="round"></path>
            <path d="M56.5573171,90 L56,92.6083393" id="Path-83-Copy" stroke="#E6E2B0" stroke-width="0.6" stroke-linecap="round" stroke-linejoin="round"></path>
            <path d="M47.3841709,96 L46,98.1858832" id="Path-83-Copy-9" stroke="#E6E2B0" stroke-width="0.6" stroke-linecap="round" stroke-linejoin="round"></path>
            <path d="M59.4351117,95 L58,96.3544028" id="Path-83-Copy-2" stroke="#E6E2B0" stroke-width="0.6" stroke-linecap="round" stroke-linejoin="round"></path>
            <path d="M55.7006461,95 L55,97.0843546" id="Path-83-Copy-3" stroke="#E6E2B0" stroke-width="0.6" stroke-linecap="round" stroke-linejoin="round"></path>
            <path d="M48.4494142,100 L47,101.042177" id="Path-83-Copy-11" stroke="#E6E2B0" stroke-width="0.6" stroke-linecap="round" stroke-linejoin="round"></path>
            <path d="M48.7006461,92 L48,94.0843546" id="Path-83-Copy-8" stroke="#E6E2B0" stroke-width="0.6" stroke-linecap="round" stroke-linejoin="round"></path>
            <path d="M55,99 L55.4914333,101.198868" id="Path-83-Copy-4" stroke="#E6E2B0" stroke-width="0.6" stroke-linecap="round" stroke-linejoin="round"></path>
            <path d="M42,99 L43.4784261,101.125268" id="Path-83-Copy-10" stroke="#E6E2B0" stroke-width="0.6" stroke-linecap="round" stroke-linejoin="round"></path>
            <path d="M49,97 L50.5540505,99.1681199" id="Path-83-Copy-5" stroke="#E6E2B0" stroke-width="0.6" stroke-linecap="round" stroke-linejoin="round"></path>
            <path d="M43,94 L44.5540505,96.1681199" id="Path-83-Copy-7" stroke="#E6E2B0" stroke-width="0.6" stroke-linecap="round" stroke-linejoin="round"></path>
            <path d="M52,94 L52.4914333,96.1988684" id="Path-83-Copy-6" stroke="#E6E2B0" stroke-width="0.6" stroke-linecap="round" stroke-linejoin="round"></path>
        </g>
    </g>
</svg>