<?xml version="1.0" encoding="UTF-8"?>
<svg width="210px" height="53px" viewBox="0 0 210 53" version="1.1" xmlns="http://www.w3.org/2000/svg" xmlns:xlink="http://www.w3.org/1999/xlink">
    <!-- Generator: Sketch 48.1 (47250) - http://www.bohemiancoding.com/sketch -->
    <title>一马当先</title>
    <desc>Created with Sketch.</desc>
    <defs></defs>
    <g id="Artboard" stroke="none" stroke-width="1" fill="none" fill-rule="evenodd" transform="translate(-134.000000, -33.000000)">
        <g id="Group-11" transform="translate(25.000000, 17.000000)" fill="#000000">
            <g id="Group-10">
                <path d="M109.566,40.428 L147.042,40.428 L152.064,33.3 C152.064,33.3 157.68,38.214 160.92,41.292 C160.758,41.886 160.11,42.156 159.192,42.156 L110.052,42.156 L109.566,40.428 Z M189.803647,52.146 L193.853647,46.962 C193.853647,46.962 198.443647,50.418 201.251647,52.794 C201.089647,53.388 200.441647,53.658 199.685647,53.658 L163.073647,53.658 L162.641647,52.146 L189.803647,52.146 Z M206.975647,37.998 L213.779647,43.83 C213.347647,44.316 212.699647,44.694 211.511647,44.856 C210.863647,57.708 209.783647,63.864 206.705647,66.186 C204.653647,67.752 202.331647,68.292 197.903647,68.238 C197.903647,66.078 197.633647,64.512 196.445647,63.432 C195.257647,62.19 192.935647,61.272 189.965647,60.678 L189.965647,60.138 C193.043647,60.354 197.525647,60.57 198.821647,60.57 C199.739647,60.57 200.171647,60.462 200.657647,60.084 C202.115647,58.95 202.871647,52.956 203.357647,43.452 L179.867647,43.452 L177.275647,46.854 L170.039647,43.02 C170.471647,42.588 171.065647,42.102 171.659647,41.67 C172.793647,36.702 174.197647,27.414 174.413647,23.85 L184.349647,25.74 C184.187647,26.388 183.647647,27.036 182.243647,27.09 C181.703647,30.87 180.623647,37.674 179.813647,41.94 L193.151647,41.94 C194.069647,35.352 194.717647,27.036 195.041647,21.474 L167.987647,21.474 L167.501647,19.962 L194.501647,19.962 L197.633647,15.966 L205.463647,21.69 C205.139647,22.122 204.437647,22.608 203.303647,22.824 C202.979647,27.63 202.169647,36.216 201.413647,41.94 L202.817647,41.94 L206.975647,37.998 Z M252.005295,20.124 L262.319295,24.012 C262.049295,24.714 261.293295,25.092 259.997295,25.038 C256.325295,29.79 251.897295,33.948 247.523295,36.81 L246.983295,36.432 C248.549295,32.436 250.601295,25.848 252.005295,20.124 Z M220.793295,21.204 L221.225295,20.934 C240.179295,25.632 233.861295,40.158 226.517295,34.542 C225.707295,29.898 223.223295,24.93 220.793295,21.204 Z M255.839295,33.57 L263.129295,39.294 C262.751295,39.78 261.995295,40.32 260.753295,40.59 L260.753295,65.592 C260.699295,66.186 256.973295,68.076 254.057295,68.076 L252.761295,68.076 L252.761295,63.756 L218.201295,63.756 L217.715295,62.244 L252.761295,62.244 L252.761295,51.282 L221.927295,51.282 L221.441295,49.77 L252.761295,49.77 L252.761295,39.132 L219.281295,39.132 L218.795295,37.62 L236.399295,37.62 L236.399295,16.884 L246.335295,17.64 C246.227295,18.45 245.849295,18.99 244.337295,19.206 L244.337295,37.62 L252.167295,37.62 L255.839295,33.57 Z M316.420942,50.418 L316.582942,58.248 C318.580942,59.112 319.012942,60.03 319.012942,61.596 C319.012942,64.782 316.420942,66.402 307.402942,66.402 L302.434942,66.402 C296.278942,66.402 294.874942,65.106 294.874942,59.814 L294.874942,41.184 L290.014942,41.184 C289.096942,54.144 284.074942,64.026 267.496942,68.238 L267.280942,67.698 C278.242942,61.326 280.726942,51.984 280.888942,41.184 L268.144942,41.184 L267.712942,39.672 L288.880942,39.672 L288.880942,29.412 L280.996942,29.412 C278.350942,33.462 275.110942,36.54 271.384942,38.862 L270.790942,38.43 C273.652942,33.3 276.190942,25.524 277.108942,17.802 L287.152942,20.556 C286.936942,21.312 286.234942,21.744 284.992942,21.744 C284.074942,24.012 283.102942,26.01 281.968942,27.9 L288.880942,27.9 L288.880942,16.776 L299.032942,17.586 C298.924942,18.342 298.546942,18.882 297.034942,19.152 L297.034942,27.9 L303.892942,27.9 L307.834942,22.986 C307.834942,22.986 312.262942,26.172 315.070942,28.548 C314.908942,29.142 314.314942,29.412 313.504942,29.412 L297.034942,29.412 L297.034942,39.672 L306.970942,39.672 L311.020942,34.326 C311.020942,34.326 315.610942,37.89 318.364942,40.32 C318.202942,40.914 317.608942,41.184 316.798942,41.184 L302.812942,41.184 L302.812942,57.654 C302.812942,58.464 303.082942,58.734 304.378942,58.734 L308.374942,58.734 C309.562942,58.734 310.696942,58.734 311.344942,58.68 C312.100942,58.626 312.424942,58.464 312.856942,57.87 C313.558942,56.79 314.530942,54.09 315.880942,50.418 L316.420942,50.418 Z" id="一马当先"></path>
            </g>
        </g>
    </g>
</svg>