<?xml version="1.0" encoding="UTF-8"?>
<svg width="212px" height="53px" viewBox="0 0 212 53" version="1.1" xmlns="http://www.w3.org/2000/svg" xmlns:xlink="http://www.w3.org/1999/xlink">
    <!-- Generator: Sketch 48.1 (47250) - http://www.bohemiancoding.com/sketch -->
    <title>全力追击</title>
    <desc>Created with Sketch.</desc>
    <defs></defs>
    <g id="Artboard-Copy-2" stroke="none" stroke-width="1" fill="none" fill-rule="evenodd" transform="translate(-133.000000, -33.000000)">
        <path d="M173.716,81.674 L177.766,76.436 C177.766,76.436 182.356,79.946 185.11,82.322 C184.948,82.916 184.3,83.186 183.544,83.186 L136.888,83.186 L136.456,81.674 L155.734,81.674 L155.734,69.848 L142.72,69.848 L142.288,68.336 L155.734,68.336 L155.734,58.13 L144.718,58.13 L144.286,56.618 L165.886,56.618 L169.504,52.028 C169.504,52.028 173.662,55.106 176.146,57.266 C175.984,57.86 175.39,58.13 174.634,58.13 L163.996,58.13 L163.996,68.336 L169.18,68.336 L173.068,63.476 C173.068,63.476 177.442,66.716 180.142,68.984 C179.98,69.578 179.386,69.848 178.576,69.848 L163.996,69.848 L163.996,81.674 L173.716,81.674 Z M154.708,33.884 L166.48,36.962 C166.264,37.772 165.508,38.096 163.51,38.312 C168.478,45.008 178.954,47.978 186.514,49.652 L186.46,50.516 C182.95,51.542 180.736,55.322 180.196,58.454 C172.582,54.242 165.67,48.302 162.7,38.96 C157.192,47.762 145.15,56.456 134.188,60.668 L133.864,60.128 C143.098,53.702 152.71,41.822 154.708,33.884 Z M229.113647,43.766 L235.971647,49.814 C235.485647,50.354 234.783647,50.732 233.487647,50.948 C232.839647,69.254 231.651647,78.65 228.195647,81.728 C225.981647,83.78 223.497647,84.644 218.691647,84.644 C218.745647,82.16 218.313647,80.216 217.071647,79.028 C215.829647,77.786 213.237647,76.652 209.943647,76.004 L209.943647,75.464 C213.399647,75.68 218.205647,75.95 219.879647,75.95 C220.851647,75.95 221.445647,75.788 221.985647,75.248 C223.983647,73.628 224.901647,64.124 225.441647,49.49 L213.831647,49.49 C212.805647,64.178 208.593647,76.706 187.857647,85.076 L187.371647,84.374 C201.573647,74.276 204.759647,62.774 205.461647,49.49 L190.017647,49.49 L189.531647,47.978 L205.569647,47.978 C205.731647,43.496 205.677647,38.852 205.677647,33.992 L216.261647,34.964 C216.153647,35.828 215.613647,36.314 214.263647,36.476 C214.155647,40.418 214.155647,44.252 213.939647,47.978 L224.847647,47.978 L229.113647,43.766 Z M242.337295,35.342 L242.769295,35.072 C260.751295,38.636 254.757295,52.19 247.791295,47.114 C246.981295,43.01 244.605295,38.528 242.337295,35.342 Z M277.383295,43.442 L266.745295,43.442 L266.745295,51.704 L277.383295,51.704 L277.383295,43.442 Z M278.949295,60.668 L266.745295,60.668 L266.745295,69.794 L278.949295,69.794 L278.949295,60.668 Z M260.373295,76.058 L259.995295,76.058 C263.559295,77.084 268.311295,77.462 274.899295,77.408 C280.677295,77.408 285.483295,77.354 291.315295,76.976 L291.315295,77.57 C288.399295,78.326 286.725295,81.026 286.401295,84.158 L272.469295,84.158 C261.021295,84.158 256.377295,81.08 252.273295,74.276 C251.517295,73.034 250.923295,73.196 250.275295,74.276 C249.195295,76.22 246.549295,80.432 244.713295,83.78 C244.821295,84.374 244.551295,84.806 244.065295,85.076 L239.151295,77.354 C241.311295,76.274 244.119295,74.6 246.441295,73.304 L246.441295,55.16 L240.069295,55.16 L239.745295,53.648 L245.577295,53.648 L248.979295,49.112 L256.215295,54.89 C255.783295,55.43 254.973295,55.862 253.407295,56.132 L253.407295,72.494 C254.973295,73.952 256.863295,75.032 259.185295,75.788 L259.185295,38.798 L267.069295,41.93 L267.339295,41.93 C267.447295,39.608 267.609295,36.098 267.663295,33.56 L279.111295,35.072 C278.895295,36.098 278.139295,36.53 276.897295,36.692 C275.331295,38.15 272.739295,40.418 270.903295,41.93 L276.843295,41.93 L280.191295,38.258 L287.211295,43.496 C286.887295,43.928 286.185295,44.414 285.051295,44.684 L285.051295,54.242 C284.997295,54.62 281.109295,55.808 278.733295,55.808 L277.383295,55.808 L277.383295,53.216 L266.745295,53.216 L266.745295,59.156 L278.409295,59.156 L281.757295,55.484 L288.777295,60.722 C288.453295,61.154 287.751295,61.64 286.617295,61.91 L286.617295,73.034 C286.563295,73.412 282.729295,74.6 280.299295,74.6 L278.949295,74.6 L278.949295,71.306 L266.745295,71.306 L266.745295,73.466 C266.745295,74.276 263.613295,76.058 260.373295,76.058 Z M332.078942,56.618 L336.452942,51.056 C336.452942,51.056 341.366942,54.782 344.336942,57.266 C344.228942,57.86 343.580942,58.13 342.770942,58.13 L322.142942,58.13 L322.142942,78.92 L330.890942,78.92 L330.890942,61.586 L340.772942,62.45 C340.664942,63.152 340.286942,63.746 338.828942,63.962 L338.828942,83.294 C338.828942,83.78 335.372942,85.022 332.240942,85.022 L330.890942,85.022 L330.890942,80.432 L305.348942,80.432 L303.080942,83.726 L295.358942,79.946 C295.898942,79.298 296.654942,78.596 297.410942,78.056 L297.410942,61.532 L307.076942,62.45 C306.968942,63.26 306.536942,63.8 305.078942,64.016 L305.078942,78.92 L314.150942,78.92 L314.150942,58.13 L292.766942,58.13 L292.334942,56.618 L314.150942,56.618 L314.150942,45.332 L296.978942,45.332 L296.546942,43.82 L314.150942,43.82 L314.150942,34.046 L324.140942,34.964 C324.032942,35.774 323.654942,36.314 322.142942,36.53 L322.142942,43.82 L327.974942,43.82 L332.348942,38.258 C332.348942,38.258 337.262942,41.984 340.232942,44.468 C340.070942,45.062 339.422942,45.332 338.666942,45.332 L322.142942,45.332 L322.142942,56.618 L332.078942,56.618 Z" id="全力追击" fill="#000000"></path>
    </g>
</svg>