<?xml version="1.0" encoding="UTF-8"?>
<svg width="197px" height="207px" viewBox="0 0 197 207" version="1.1" xmlns="http://www.w3.org/2000/svg" xmlns:xlink="http://www.w3.org/1999/xlink">
    <!-- Generator: Sketch 48.1 (47250) - http://www.bohemiancoding.com/sketch -->
    <title>Group 13 Copy 3</title>
    <desc>Created with Sketch.</desc>
    <defs>
        <filter x="-29.2%" y="-29.3%" width="158.5%" height="158.5%" filterUnits="objectBoundingBox" id="filter-1">
            <feGaussianBlur stdDeviation="12.96" in="SourceGraphic"></feGaussianBlur>
        </filter>
        <filter x="-69.2%" y="-69.3%" width="238.4%" height="238.6%" filterUnits="objectBoundingBox" id="filter-2">
            <feGaussianBlur stdDeviation="1.82410714" in="SourceGraphic"></feGaussianBlur>
        </filter>
        <path d="M0.177795509,5.78285097 C-0.38686077,4.29797782 0.448593392,2.97484798 2.01927432,2.83575835 C2.01927432,2.83575835 31.3230081,1.24753397e-15 62.7797192,0 C94.2364303,0 122.836375,2.83177104 122.836375,2.83177104 C124.409696,2.97673433 125.218961,4.29115743 124.639755,5.77831013 L119.541305,18.8689343 C118.963963,20.3512996 118.956588,22.7623971 119.518336,24.2372179 L124.662724,37.7433599 C125.22738,39.2258157 124.412266,40.29516 122.819729,40.1364799 C122.819729,40.1364799 94.0521027,36.9958918 62.4198631,36.9958918 C30.7876236,36.9958918 2.0056232,40.1379571 2.0056232,40.1379571 C0.431485564,40.2979134 -0.372902344,39.2184733 0.200764706,37.7479991 L5.29921423,24.6792016 C5.87655605,23.1993079 5.88393157,20.7882419 5.32218343,19.3110163 L0.177795509,5.78285097 Z" id="path-3"></path>
    </defs>
    <g id="Page-1" stroke="none" stroke-width="1" fill="none" fill-rule="evenodd">
        <g id="Group-13-Copy-3" transform="translate(32.000000, 0.000000)">
            <ellipse id="Oval-35" fill="#3770EB" opacity="0.399513134" filter="url(#filter-1)" cx="66.5" cy="108.589744" rx="66.5" ry="66.4102564"></ellipse>
            <g id="Group-27" transform="translate(8.627027, 0.000000)">
                <g id="Group-13-Copy" transform="translate(0.000000, 49.358974)">
                    <ellipse id="Oval-16" stroke="#226CC3" stroke-width="2.88" fill="#215382" cx="57.872973" cy="57.7948718" rx="57.872973" ry="57.7948718"></ellipse>
                    <path d="M4.29825809,79.6923077 C1.5275052,72.9386981 0,65.5449282 0,57.7948718 C0,25.8756455 25.9106126,0 57.872973,0 C89.8353334,0 115.745946,25.8756455 115.745946,57.7948718 C115.745946,65.5449282 114.218441,72.9386981 111.447688,79.6923077 L4.29825809,79.6923077 Z" id="Combined-Shape" stroke="#226CC3" stroke-width="2.88" fill="#215382"></path>
                    <polygon id="Star" fill="#FFF576" points="90.5837838 46.3076923 88.4709341 47.4169841 88.8744525 45.0674664 87.1651212 43.4035287 89.5273589 43.0607387 90.5837838 40.9230769 91.6402086 43.0607387 94.0024464 43.4035287 92.2931151 45.0674664 92.6966335 47.4169841"></polygon>
                    <polygon id="Star-Copy-2" fill="#FFF576" points="22.6459459 33.2178793 20.3218113 34.4253492 20.7535381 31.84482 18.8854171 30.0105483 21.4763736 29.6231634 22.6459459 27.2820513 23.8155183 29.6231634 26.4064748 30.0105483 24.5383538 31.84482 24.9700806 34.4253492"></polygon>
                    <polygon id="Star-Copy-3" fill="#FFF576" points="8.98648649 59.4206891 7.08492176 60.408619 7.43815282 58.297277 5.90969014 56.7965092 8.02956366 56.479558 8.98648649 54.5641026 9.94340932 56.479558 12.0632828 56.7965092 10.5348202 58.297277 10.8880512 60.408619"></polygon>
                </g>
                <g id="Group-25" transform="translate(29.475676, 51.512821)">
                    <g id="Group-22-Copy">
                        <g id="Group-19" transform="translate(7.747683, 0.000000)">
                            <polygon id="Rectangle-33" fill="#F8E0A0" points="14.9069943 46.9933302 24.1602542 46.9933302 24.1602542 62.0886622 14.9069943 62.0886622"></polygon>
                            <rect id="Rectangle-32" fill="#5B5A5A" x="14.0395855" y="0.581991337" width="9.54149685" height="13.0965018" rx="4.77074842"></rect>
                            <path d="M22.9828377,8.74576346 C22.9828377,8.74576346 26.1261007,8.34254934 28.8497871,7.24135312 C31.5734736,6.14015691 33.591684,5.45284813 33.591684,5.45284813 C33.591684,5.45284813 32.6455598,7.46167143 33.0464423,8.16176183 C33.4473248,8.86185223 35.056641,9.85697414 35.056641,9.85697414 L31.1156189,11.201153 L22.459554,9.36718757 L22.9828377,8.74576346 Z" id="Path-47" fill="#7A696B"></path>
                            <path d="M23.6612703,8.43231876 C23.6612703,8.43231876 27.4404289,9.88392483 29.7629733,10.0278265 C32.0855176,10.1717282 37.8504301,9.51197966 37.8504301,9.51197966 C37.8504301,9.51197966 36.4801218,10.7865373 36.4419031,11.4402301 C36.4036845,12.0939229 36.6977706,14.0001818 36.6977706,14.0001818 L30.9427268,13.5431386 L24.0109798,11.1428652 L22.293474,8.88760897 L23.6612703,8.43231876 Z" id="Path-46" fill="#978D8E"></path>
                            <path d="M14.0720587,8.52031106 C14.0720587,8.52031106 15.2043684,5.97971109 18.9706337,6.14858068 C22.736899,6.31745027 23.5005239,8.32439411 23.5005239,8.32439411 L23.359658,10.7070604 L14.0720587,10.5490242 L14.0720587,8.52031106 Z" id="Path-45" fill="#978D8E"></path>
                            <path d="M2.24077079,31.5856579 C2.24077079,31.5856579 -4.76282198,10.1726854 19.3811229,9.71282291 C43.5250678,9.25296041 36.7076256,31.7721646 36.7076256,31.7721646 L2.24077079,31.5856579 Z" id="Path-44" fill="#5B5A5A"></path>
                            <path d="M19.8737223,20.7886437 C19.8737223,20.7886437 17.0196918,17.1625036 11.6537429,17.6429949 C6.28779408,18.1234862 3.7609914,22.0089831 3.78405868,24.8365085 C3.80712596,27.6640339 3.35274422,36.337188 3.35274422,36.337188 C3.28414362,37.7086367 3.81186494,39.7582424 4.63657302,40.8732536 C4.63657302,40.8732536 8.11711298,48.0702496 19.5401577,48.0702496 C30.9632025,48.0702496 34.3770046,40.8732536 34.3770046,40.8732536 C35.144131,39.7395025 35.7562035,37.7021874 35.7399908,36.334879 C35.7399908,36.334879 35.6878103,26.1410143 35.1866411,23.6054976 C34.685472,21.0699809 33.9479408,18.174415 28.8206978,17.6429949 C23.6934549,17.1115747 19.8737223,20.7886437 19.8737223,20.7886437 Z" id="Path-43" fill="#FFEDBD"></path>
                            <g id="Group-16" transform="translate(5.032432, 26.564103)">
                                <ellipse id="Oval-22-Copy" fill="#333333" cx="7.67775481" cy="6.14813278" rx="1.27282814" ry="1.12655441"></ellipse>
                                <rect id="Rectangle-53-Copy" fill="#5B5A5A" transform="translate(8.045461, 2.296220) rotate(16.000000) translate(-8.045461, -2.296220) " x="3.80270026" y="1.16966605" width="8.48552091" height="2.25310883" rx="1.12655441"></rect>
                                <ellipse id="Oval-22-Copy-2" fill="#333333" cx="20.6888869" cy="6.14813278" rx="1.27282814" ry="1.12655441"></ellipse>
                                <rect id="Rectangle-53-Copy-2" fill="#5B5A5A" transform="translate(21.056593, 2.296220) rotate(-16.000000) translate(-21.056593, -2.296220) " x="16.8138323" y="1.16966605" width="8.48552091" height="2.25310883" rx="1.12655441"></rect>
                                <path d="M12.8986226,16.40552 L17.1412623,16.40552" id="Path-21-Copy" stroke="#3C3C45" stroke-width="1.28894978" stroke-linecap="round" stroke-linejoin="round"></path>
                                <ellipse id="Oval-23-Copy-2" fill="#FFCF4B" cx="3.01598709" cy="12.3552752" rx="2.68292205" ry="2.71140207"></ellipse>
                                <ellipse id="Oval-23-Copy-3" fill="#FFCF4B" cx="25.568616" cy="12.3552752" rx="2.68292205" ry="2.71140207"></ellipse>
                            </g>
                            <ellipse id="Oval-31" fill="#FFEAB0" cx="3.30417026" cy="32.8648368" rx="3.03593081" ry="2.69633862"></ellipse>
                            <ellipse id="Oval-31-Copy" fill="#FFEAB0" cx="35.7401241" cy="32.8648368" rx="3.03593081" ry="2.69633862"></ellipse>
                        </g>
                        <path d="M22.709405,49.7880666 C22.709405,49.7880666 22.6151966,49.7880666 20.7009025,49.7880666 C18.7866084,49.7880666 12.0821429,50.2661638 7.14092705,56.2371662 C2.19971119,62.2081685 0.166783283,80.8457683 0.166783283,80.8457683 C0.166783283,80.8457683 -1.4723391,98.8898424 5.52652145,99.3217682 C12.525382,99.753694 12.7305577,82.634537 13.7326534,82.1571845 C14.7347491,81.6798319 12.8882404,101.774064 12.8882404,101.774064 L41.4597564,101.011492 L39.3759869,72.3643832 C39.3759869,72.3643832 40.8887092,78.6935861 44.9722491,84.6549073 C49.055789,90.6162285 53.7965404,89.6200793 53.7965404,89.6200793 C53.7965404,89.6200793 42.6375383,72.9465679 43.0649026,67.4402582 C43.370113,63.5078223 58.6166214,70.9195245 60.5582108,70.9195245 C62.1084929,70.9195245 66.5198172,67.4402582 68.1549564,63.3382646 C73.4636569,50.020588 68.6486981,51.2085298 65.2678296,51.2085298 C61.8869611,51.2085298 58.3519386,51.4592143 54.382917,52.2152981 C50.4138954,52.9713818 44.2638579,52.3720854 40.3707546,51.2085298 C36.4776514,50.0449742 31.8724419,49.5225559 31.8724419,49.5225559 L28.7564106,59.5805341 L22.709405,49.7880666 Z" id="Path-48" fill="#978D8E"></path>
                        <path d="M34.5855389,49.7989441 C34.5855389,49.7989441 33.0223018,61.0842804 28.1065819,69.4346005 C23.190862,77.7849205 13.9544953,86.0558837 13.9544953,86.0558837 C13.9544953,86.0558837 13.9687806,84.9286746 13.9544953,84.3462015 C13.94021,83.7637284 13.9544953,82.3049993 13.9544953,82.3049993 C13.9544953,82.3049993 22.9855517,72.3105046 25.8641343,66.6571235 C28.7427169,61.0037424 31.8123174,49.5230996 31.8123174,49.5230996 C31.8123174,49.5230996 32.7269737,49.5564665 33.1934065,49.6028613 C33.6598392,49.649256 34.5855389,49.7989441 34.5855389,49.7989441 Z" id="Path-54" fill="#7A696B"></path>
                        <path d="M22.721454,49.7603808 L29.4035133,60.6655061 L28.5653793,65.1263875 C28.5653793,65.1263875 24.8560945,60.6240138 22.721454,56.2543082 C20.5868134,51.8846026 19.7802536,49.7603808 19.7802536,49.7603808 C19.7802536,49.7603808 20.8408519,49.6559556 21.509197,49.6961559 C22.1775421,49.7363561 22.721454,49.7603808 22.721454,49.7603808 Z" id="Path-55" fill="#7A696B"></path>
                    </g>
                </g>
                <path d="M93.8714802,104.425944 C91.8542604,105.081846 89.2842264,111.857621 89.2842264,111.857621 L87.2911008,117.953964 C87.2911008,117.953964 87.4720279,120.583153 90.7496205,119.872988 C94.027213,119.162822 98.8416747,109.960366 98.5611017,107.206805 C98.2805287,104.453243 95.8887,103.770041 93.8714802,104.425944 Z" id="Path-56" fill="#7A696B" transform="translate(92.931966, 112.094746) rotate(-4.000000) translate(-92.931966, -112.094746) "></path>
                <g id="Group-21" transform="translate(79.270709, 98.455621)">
                    <g id="Group-9" transform="translate(12.340667, 13.491687) rotate(80.000000) translate(-12.340667, -13.491687) translate(0.837964, 3.440405)">
                        <path d="M3.90712964,0.372296567 L9.75219128,6.37693602 L7.1690731,8.88828466 L0.861292951,4.51007339 C0.861292951,4.51007339 0.351051133,2.62815942 1.12687884,1.51332005 C1.90270656,0.398480683 3.90712964,0.372296567 3.90712964,0.372296567 Z" id="Path-49" fill="#BFBFBF"></path>
                        <path d="M9.21200305,5.67304633 C8.90814571,5.92679969 6.74638054,8.92303986 6.74638054,8.92303986 L22.6984157,19.5975853 C22.6984157,19.5975853 9.51586039,5.41929296 9.21200305,5.67304633 Z" id="Path-53" fill="#BFBFBF"></path>
                        <path d="M10.2138916,5.23819512 C11.1279414,4.71562244 13.3368758,5.83938378 14.6066002,7.43483412 C15.8763246,9.03028446 16.0553569,10.2286477 15.3309786,10.5232209 C14.6066002,10.817794 12.1282546,10.897094 11.1710731,9.3989641 C10.2138916,7.90083416 9.29984177,5.76076781 10.2138916,5.23819512 Z" id="Path-50" fill="#FFEEC1"></path>
                        <path d="M6.05938052,8.94598579 C6.41685734,8.31544201 8.98329204,9.03880129 10.4561026,10.2624683 C11.9289132,11.4861353 13.4275686,13.3070953 13.0603998,13.8262004 C12.9458738,13.9881177 12.6260818,14.1048502 12.1966362,14.1529821 C11.2492843,14.2591605 9.76831625,14.031502 8.7801517,13.2186332 C7.34404076,12.0372817 5.7019037,9.57652958 6.05938052,8.94598579 Z" id="Path-52" fill="#FFEEC1"></path>
                    </g>
                </g>
                <rect id="Rectangle-34" fill="#FBBB74" x="16.5351351" y="127.443513" width="80.5189189" height="19.5564866"></rect>
                <text id="悬梁刺股-copy" font-family="HYk2gj, HYLingXinJ" font-size="18.72" font-weight="normal" fill="#FFFFFF">
                    <tspan x="20.1297297" y="148.358974">悬梁刺股</tspan>
                </text>
                <rect id="Rectangle-35" fill="#253D54" x="20.1297297" y="124.025641" width="73.3297297" height="3.58974359"></rect>
                <path d="M20.9974882,119.717949 L28.6079172,119.717949 C28.1385143,121.375337 26.6126201,122.589744 24.8027027,122.589744 C22.9927853,122.589744 21.4668912,121.375337 20.9974882,119.717949 Z" id="Combined-Shape" fill="#8B572A"></path>
                <polygon id="Path-57" fill="#8B572A" points="23.7191787 122.122246 22.5519713 124.108614 27.4887586 124.108614 26.1349831 121.959613"></polygon>
                <polygon id="Path-58" fill="#F7F5D4" points="24.0958298 119.721414 24.0958298 105.698456 25.0133766 103.921488 25.8244988 105.698456 25.8244988 119.721414"></polygon>
                <ellipse id="Oval-36" fill="#FFBA4A" filter="url(#filter-2)" cx="24.8027027" cy="101.410256" rx="3.95405405" ry="3.94871795"></ellipse>
                <path d="M25.641788,99.6153846 C25.641788,99.6153846 24.2590636,100.339635 24.4639558,101.769231 C24.668848,103.198826 25.3119886,103.923077 25.3119886,103.923077 C25.3119886,103.923077 26.2221968,102.551259 25.740378,101.80905 C25.2585592,101.066841 25.641788,99.6153846 25.641788,99.6153846 Z" id="Path-59" fill="#FFBA4A"></path>
                <path d="M84.8897561,120.753635 C84.7134908,120.674061 84.1094253,120.567139 84.0144203,120.661757 C83.9194153,120.756375 83.6290858,121.210647 83.6148916,121.16383 C83.6006974,121.117013 85.8357351,122.506668 85.8357351,122.506668 C85.8357351,122.506668 86.6273904,122.932261 87.0510419,123.165002 C87.2666196,123.283433 87.4504795,123.382776 87.4504795,123.382776 L87.47347,123.164331 L86.8245521,122.508657 C86.8245521,122.508657 85.0660215,120.833208 84.8897561,120.753635 Z" id="Path-60" fill="#E14E3E" transform="translate(85.544147, 122.003715) rotate(84.000000) translate(-85.544147, -122.003715) "></path>
                <path d="M84.2871438,124.339355 C84.2871438,124.339355 84.276737,124.713718 84.4188401,124.713718 C84.5609433,124.713718 84.826881,124.26822 84.8705183,124.458074 C84.9141555,124.647929 84.8511173,125.170446 84.9987969,125.170446 C85.2245122,125.170446 85.1104778,124.337359 85.3319557,124.713718 C85.5534336,125.090076 85.8093939,126.170788 85.9300388,126.245513 C86.0482056,126.318703 86.1437009,124.735447 86.2072695,124.458074 C86.2708382,124.180702 87.3614839,124.22428 87.1524234,124.110119 C86.943363,123.995958 85.5537002,124.046045 85.2245122,124.046045 C84.8953242,124.046045 84.3943499,124.160998 84.185692,124.046045 C83.9770341,123.931092 84.2871438,124.339355 84.2871438,124.339355 Z" id="Path-61" fill="#E14E3E"></path>
                <g id="Group-8" transform="translate(51.762162, 0.000000)" stroke="#AE833D" stroke-linecap="round" stroke-linejoin="round" stroke-width="1.728">
                    <path d="M0,60.8149059 C0,60.8149059 3.97922184,62.9550009 6.74166257,61.7591518 C9.5041033,60.5633027 8.60052963,58.0118181 8.60052963,58.0118181 L8.60052963,34.9133203 C8.60052963,29.9907942 8.60052963,0.85773597 8.60052963,0.85773597" id="Path-62"></path>
                    <path d="M0,59.6237794 C0,59.6237794 3.83668114,59.8069497 5.56998998,59.2353065 C7.30329881,58.6636634 7.76042346,57.9214968 7.76042346,57.9214968 L7.76855202,57.1367521" id="Path-63"></path>
                    <path d="M0.00431130631,57.1367521 C0.00431130631,57.1367521 -0.152698281,58.5100026 1.42830698,59.1646943 C3.00931224,59.8193859 5.51419271,60.638699 6.71721985,60.4148476 C7.92024698,60.1909961 7.97800255,59.2829435 7.97800255,59.2829435" id="Path-64"></path>
                </g>
            </g>
            <g id="Group-6" transform="translate(2.156757, 125.461538)">
                <g id="Group-5">
                    <g id="Rectangle-12-Copy">
                        <use fill="#FFFFFF" fill-rule="evenodd" xlink:href="#path-3"></use>
                        <path stroke="#2A7FCF" stroke-width="2.88" d="M1.52376208,5.27101703 L6.66815,18.7991824 C7.35772322,20.6125488 7.3468793,23.3925255 6.64074054,25.202563 L1.54229102,38.2713605 C1.35712927,38.7459835 1.36443403,38.7556963 1.84935013,38.7064618 C1.90824236,38.7000343 2.02003881,38.6880423 2.18576916,38.6705893 C2.4608464,38.641621 2.78582162,38.6080524 3.1591134,38.5702672 C4.22427307,38.46245 5.46370577,38.3423713 6.86476194,38.2131 C10.8654982,37.8439639 15.3607778,37.4749061 20.2494521,37.130485 C34.2177556,36.146378 48.5436755,35.5558918 62.4198631,35.5558918 C76.296042,35.5558918 90.6192637,36.1461005 104.583072,37.1297453 C109.470177,37.4740049 113.963775,37.8428898 117.96283,38.211853 C119.363298,38.3410639 120.602185,38.4610865 121.666855,38.5688534 C122.039976,38.606621 122.364799,38.640174 122.639746,38.6691289 C122.805398,38.6865739 122.917141,38.6985603 122.962503,38.7035753 C123.488667,38.7560022 123.501262,38.7395957 123.317035,38.2559228 L118.172647,24.7497807 C117.482796,22.9386378 117.49364,20.1586331 118.199484,18.3463305 L123.297933,5.25570634 C123.52999,4.65988325 123.323263,4.32273165 122.69449,4.26476393 C122.641068,4.25947313 122.531785,4.24884128 122.370591,4.23344537 C122.100895,4.20768637 121.781638,4.17777728 121.414392,4.14406372 C120.363853,4.04762322 119.140212,3.94011104 117.756051,3.82429212 C113.799223,3.49320685 109.351146,3.1620569 104.512511,2.85295625 C90.688405,1.96984764 76.5084063,1.44 62.7797192,1.44 C49.0507009,1.44 34.7382348,1.97062272 20.6937305,2.8550325 C15.7777974,3.16459838 11.2469223,3.49625091 7.20730032,3.82784414 C5.79411577,3.9438457 4.54351444,4.05152994 3.46876498,4.14812796 C3.09302351,4.18189945 2.76621641,4.21186136 2.49000203,4.23766755 C2.32486724,4.25309579 2.21288334,4.26374818 2.14629461,4.27014528 C1.523187,4.32532377 1.29970619,4.68181861 1.52376208,5.27101703 Z"></path>
                    </g>
                    <text id="悬梁刺股" font-family="HYk2gj, HYLingXinJ" font-size="18.72" font-weight="normal" fill="#2A7FCF">
                        <tspan x="25.8810811" y="25.0512821">悬梁刺股</tspan>
                    </text>
                </g>
            </g>
            <path d="M98.9037875,68.254044 C96.4775685,69.1707658 94.7500337,71.5357726 94.7500337,74.3087591 C94.7500337,77.0817455 96.4775685,79.4467523 98.9037875,80.3634741 C98.207659,80.6264991 97.454013,80.7702975 96.6671508,80.7702975 C93.1378357,80.7702975 90.2767605,77.8773682 90.2767605,74.3087591 C90.2767605,70.7401499 93.1378357,67.8472206 96.6671508,67.8472206 C97.454013,67.8472206 98.207659,67.9910191 98.9037875,68.254044 Z" id="Combined-Shape" fill="#FFF576" transform="translate(94.590274, 74.308759) rotate(-24.000000) translate(-94.590274, -74.308759) "></path>
        </g>
    </g>
</svg>