<?xml version="1.0" encoding="UTF-8"?>
<svg width="273px" height="268px" viewBox="0 0 273 268" version="1.1" xmlns="http://www.w3.org/2000/svg" xmlns:xlink="http://www.w3.org/1999/xlink">
<!-- Generator: Sketch 43.1 (39012) - http://www.bohemiancoding.com/sketch -->
<title>Group 13</title>
<desc>Created with Sketch.</desc>
<defs>
  <filter x="-29.2%" y="-29.2%" width="158.4%" height="158.4%" filterUnits="objectBoundingBox" id="filter-1">
    <feGaussianBlur stdDeviation="18" in="SourceGraphic"></feGaussianBlur>
  </filter>
  <filter x="-69.1%" y="-69.1%" width="238.2%" height="238.2%" filterUnits="objectBoundingBox" id="filter-2">
    <feGaussianBlur stdDeviation="2.53348214" in="SourceGraphic"></feGaussianBlur>
  </filter>
  <path d="M0.247309542,8.05468528 C-0.538114605,5.9864691 0.609457033,4.1448516 2.80876503,3.94980628 C2.80876503,3.94980628 43.5695978,3.0159346e-14 87.3251733,2.84217094e-14 C131.080749,2.84217094e-14 170.841693,3.94239335 170.841693,3.94239335 C173.041708,4.1453333 174.17675,5.97696928 173.376431,8.03462193 L166.273916,26.2954685 C165.473797,28.352604 165.462113,31.6947301 166.24731,33.758982 L173.403037,52.5711084 C174.188461,54.6359576 173.040295,56.1239396 170.839472,55.9043827 C170.839472,55.9043827 130.824353,51.5299921 86.8246217,51.5299921 C42.8248899,51.5299921 2.81078082,55.9043827 2.81078082,55.9043827 C0.609590582,56.1283153 -0.526403823,54.6455076 0.279259178,52.5775701 L7.37108746,34.3746022 C8.17415691,32.3133217 8.19204215,28.9751326 7.4030371,26.897487 L0.247309542,8.05468528 Z" id="path-3"></path>
</defs>
<g id="Page-1" stroke="none" stroke-width="1" fill="none" fill-rule="evenodd">
  <g id="实时绩效-小分-copy-10" transform="translate(-51.000000, 0.000000)">
    <g id="Group-13" transform="translate(95.000000, -10.000000)">
      <circle id="Oval-35" fill="#3670EB" opacity="0.399513134" filter="url(#filter-1)" cx="92.5" cy="141.5" r="92.5"></circle>
      <g id="Group-27" transform="translate(12.000000, 0.000000)">
        <g id="Group-13-Copy" transform="translate(0.000000, 59.000000)">
          <circle id="Oval-16" stroke="#226CC3" stroke-width="4" fill="#215382" cx="80.5" cy="80.5" r="80.5"></circle>
          <path d="M5.97878005,111 C2.12472528,101.593187 0,91.2947214 0,80.5 C0,36.0410776 36.0410776,0 80.5,0 C124.958922,0 161,36.0410776 161,80.5 C161,91.2947214 158.875275,101.593187 155.02122,111 L5.97878005,111 Z" id="Combined-Shape" stroke="#226CC3" stroke-width="4" fill="#215382"></path>
          <polygon id="Star" fill="#FFF576" points="126 64.5 123.061074 66.045085 123.622359 62.7725425 121.244717 60.454915 124.530537 59.9774575 126 57 127.469463 59.9774575 130.755283 60.454915 128.377641 62.7725425 128.938926 66.045085"></polygon>
          <polygon id="Star-Copy-2" fill="#FFF576" points="31.5 46.2677604 28.2671811 47.9495935 28.8677034 44.355285 26.2691892 41.8004065 29.8731512 41.2608348 31.5 38 33.1268488 41.2608348 36.7308108 41.8004065 34.1322966 44.355285 34.7328189 47.9495935"></polygon>
          <polygon id="Star-Copy-3" fill="#FFF576" points="12.5 82.7645313 9.85496636 84.1405765 10.3463028 81.1997786 8.22024568 79.1094235 11.1689419 78.6679557 12.5 76 13.8310581 78.6679557 16.7797543 79.1094235 14.6536972 81.1997786 15.1450336 84.1405765"></polygon>
        </g>
        <g id="Group-25" transform="translate(41.000000, 62.000000)">
          <g id="Group-22-Copy">
            <g id="Group-19" transform="translate(10.776852, 0.000000)">
              <polygon id="Rectangle-33" fill="#F8E0A0" points="20.7352929 65.4549956 33.6063686 65.4549956 33.6063686 86.4806366 20.7352929 86.4806366"></polygon>
              <rect id="Rectangle-32" fill="#5B5A5A" x="19.5287468" y="0.810630791" width="13.2720069" height="18.2415561" rx="6.63600345"></rect>
              <path d="M31.9686088,12.1815991 C31.9686088,12.1815991 36.3408167,11.6199794 40.1294031,10.0861704 C43.9179896,8.55236141 46.7252747,7.59503847 46.7252747,7.59503847 C46.7252747,7.59503847 45.4092373,10.3930423 45.9668558,11.3681683 C46.5244743,12.3432942 48.7629968,13.7293568 48.7629968,13.7293568 L43.281124,15.6016059 L31.240733,13.0471541 L31.9686088,12.1815991 Z" id="Path-47" fill="#7A696B"></path>
              <path d="M32.9122933,11.7450154 C32.9122933,11.7450154 38.1690177,13.7668953 41.3996245,13.9673298 C44.6302313,14.1677642 52.6490945,13.2488288 52.6490945,13.2488288 C52.6490945,13.2488288 50.7430265,15.0241055 50.6898653,15.9346062 C50.636704,16.845107 51.0457711,19.5002532 51.0457711,19.5002532 L43.040635,18.8636574 L33.3987313,15.5204194 L31.0097195,12.3791696 L32.9122933,11.7450154 Z" id="Path-46" fill="#978D8E"></path>
              <path d="M19.5739162,11.8675761 C19.5739162,11.8675761 21.1489335,8.3288833 26.3877236,8.56409452 C31.6265137,8.79930574 32.6886986,11.5946918 32.6886986,11.5946918 L32.4927573,14.9134056 L19.5739162,14.6932837 L19.5739162,11.8675761 Z" id="Path-45" fill="#978D8E"></path>
              <path d="M3.11686162,43.9943092 C3.11686162,43.9943092 -6.62497794,14.1690975 26.9587048,13.5285748 C60.5423875,12.888052 51.0594792,44.2540865 51.0594792,44.2540865 L3.11686162,43.9943092 Z" id="Path-44" fill="#5B5A5A"></path>
              <path d="M27.6438994,28.9556109 C27.6438994,28.9556109 23.6740074,23.9049157 16.2100936,24.5741714 C8.74617974,25.2434272 5.2314542,30.6553693 5.26354027,34.5937083 C5.29562634,38.5320472 4.66359158,50.6125119 4.66359158,50.6125119 C4.5681697,52.522744 5.30221815,55.3775519 6.43662755,56.9146247 C6.43662755,56.9146247 11.2907211,66.9549905 27.1799186,66.9549905 C43.0691162,66.9549905 47.817638,56.9306032 47.817638,56.9306032 C48.8846935,55.3514499 49.7362341,52.5294504 49.713521,50.6092958 C49.713521,50.6092958 49.6409391,36.4106985 48.9438241,32.8790859 C48.2467092,29.3474733 47.2208199,25.3143638 40.0889406,24.5741714 C32.9570613,23.8339791 27.6438994,28.9556109 27.6438994,28.9556109 Z" id="Path-43" fill="#FFEEBD"></path>
              <g id="Group-16" transform="translate(7.000000, 37.000000)">
                <ellipse id="Oval-22-Copy" fill="#333333" cx="10.6795838" cy="8.56347065" rx="1.77047523" ry="1.56912936"></ellipse>
                <rect id="Rectangle-53-Copy" fill="#5B5A5A" transform="translate(11.191054, 3.198307) rotate(16.000000) translate(-11.191054, -3.198307) " x="5.28947028" y="1.62917772" width="11.8031682" height="3.13825872" rx="1.56912936"></rect>
                <ellipse id="Oval-22-Copy-2" fill="#333333" cx="28.777775" cy="8.56347065" rx="1.77047523" ry="1.56912936"></ellipse>
                <rect id="Rectangle-53-Copy-2" fill="#5B5A5A" transform="translate(29.289246, 3.198307) rotate(-16.000000) translate(-29.289246, -3.198307) " x="23.3876615" y="1.62917772" width="11.8031682" height="3.13825872" rx="1.56912936"></rect>
                <path d="M17.941693,22.8505457 L23.8431093,22.8505457" id="Path-21-Copy" stroke="#3C3C45" stroke-width="1.79020802" stroke-linecap="round" stroke-linejoin="round"></path>
                <ellipse id="Oval-23-Copy-2" fill="#FFCF4B" cx="4.19517002" cy="17.2091333" rx="3.73188406" ry="3.77659574"></ellipse>
                <ellipse id="Oval-23-Copy-3" fill="#FFCF4B" cx="35.5653681" cy="17.2091333" rx="3.73188406" ry="3.77659574"></ellipse>
              </g>
              <ellipse id="Oval-31" fill="#FFEAB0" cx="4.5960263" cy="45.7760227" rx="4.22291128" ry="3.7556145"></ellipse>
              <ellipse id="Oval-31-Copy" fill="#FFEAB0" cx="49.7137064" cy="45.7760227" rx="4.22291128" ry="3.7556145"></ellipse>
            </g>
            <path d="M31.5882701,69.3476642 C31.5882701,69.3476642 31.4572284,69.3476642 28.7944884,69.3476642 C26.1317485,69.3476642 16.8059882,70.0135853 9.93286845,78.3303386 C3.05974865,86.6470918 0.231991785,112.606606 0.231991785,112.606606 C0.231991785,112.606606 -2.04799048,137.739423 7.68726668,138.341034 C17.4225238,138.942645 17.7079187,115.098105 19.1018111,114.433221 C20.4957036,113.768337 17.9272518,141.756733 17.9272518,141.756733 L57.669586,140.694578 L54.7711096,100.793248 C54.7711096,100.793248 56.8752723,109.608923 62.5553841,117.912192 C68.2354959,126.215461 74.8297742,124.827968 74.8297742,124.827968 C74.8297742,124.827968 59.307854,101.604148 59.9023081,93.9346453 C60.3268489,88.4573239 81.5343982,98.7807662 84.2351053,98.7807662 C86.3915126,98.7807662 92.5275653,93.9346453 94.8020071,88.2211542 C102.18629,69.6715333 95.4887905,71.3261665 90.7860788,71.3261665 C86.083367,71.3261665 81.1662304,71.6753342 75.6454109,72.7284509 C70.1245913,73.7815676 61.5700279,72.9468333 56.1548091,71.3261665 C50.7395902,69.7054997 44.3338477,68.9778457 44.3338477,68.9778457 L39.9995185,82.9871725 L31.5882701,69.3476642 Z" id="Path-48" fill="#978D8E"></path>
            <path d="M48.1077044,69.362815 C48.1077044,69.362815 45.933277,85.0816763 39.0956215,96.7124792 C32.257966,108.343282 19.4103882,119.863552 19.4103882,119.863552 C19.4103882,119.863552 19.4302588,118.293511 19.4103882,117.482209 C19.3905177,116.670907 19.4103882,114.639106 19.4103882,114.639106 C19.4103882,114.639106 31.9723839,100.718203 35.9764274,92.8438506 C39.9804709,84.9694984 44.2502159,68.978603 44.2502159,68.978603 C44.2502159,68.978603 45.5224822,69.0250784 46.1712797,69.0896996 C46.8200771,69.1543209 48.1077044,69.362815 48.1077044,69.362815 Z" id="Path-54" fill="#7A696B"></path>
            <path d="M31.6050299,69.3091019 L40.8996238,84.4983835 L39.7337982,90.711754 C39.7337982,90.711754 34.5742668,84.4405906 31.6050299,78.354215 C28.6357931,72.2678394 27.5138865,69.3091019 27.5138865,69.3091019 C27.5138865,69.3091019 28.9891549,69.1636525 29.9188079,69.2196457 C30.8484609,69.2756389 31.6050299,69.3091019 31.6050299,69.3091019 Z" id="Path-55" fill="#7A696B"></path>
          </g>
        </g>
        <path d="M130.573112,135.700422 C127.767204,136.614 124.192345,146.051686 124.192345,146.051686 L121.419952,154.543022 C121.419952,154.543022 121.671618,158.205107 126.230675,157.215947 C130.789732,156.226788 137.48654,143.409082 137.096269,139.573764 C136.705999,135.738446 133.379019,134.786843 130.573112,135.700422 Z" id="Path-56" fill="#7A696B" transform="translate(129.266269, 146.381968) rotate(-4.000000) translate(-129.266269, -146.381968) "></path>
        <g id="Group-21" transform="translate(110.263768, 127.384615)">
          <g id="Group-9" transform="translate(17.165589, 18.791992) rotate(80.000000) translate(-17.165589, -18.791992) translate(1.165589, 4.791992)">
            <path d="M5.4347292,0.518555932 L13.5650781,8.88216088 L9.97201897,12.3801108 L1.19803907,6.28188794 C1.19803907,6.28188794 0.488304207,3.66065062 1.56746305,2.10783864 C2.6466219,0.555026665 5.4347292,0.518555932 5.4347292,0.518555932 Z" id="Path-49" fill="#BFBFBF"></path>
            <path d="M12.8136885,7.9017431 C12.3910297,8.25518529 9.38406315,12.4285198 9.38406315,12.4285198 L31.5729843,27.2966366 C31.5729843,27.2966366 13.2363472,7.54830091 12.8136885,7.9017431 Z" id="Path-53" fill="#BFBFBF"></path>
            <path d="M14.2072928,7.29605749 C15.4787154,6.5681884 18.5512934,8.13342741 20.3174514,10.3556618 C22.0836094,12.5778962 22.3326393,14.247045 21.3250454,14.6573433 C20.3174514,15.0676417 16.8701286,15.1780953 15.5387107,13.0914143 C14.2072928,11.0047333 12.9358701,8.02392659 14.2072928,7.29605749 Z" id="Path-50" fill="#FFEEC1"></path>
            <path d="M8.42846162,12.4604802 C8.92570382,11.5822228 12.4955566,12.5897589 14.5442029,14.2941523 C16.5928492,15.9985456 18.6774451,18.5348827 18.1667215,19.2579219 C18.0074185,19.4834496 17.562595,19.6460414 16.9652459,19.7130822 C15.6475007,19.8609736 13.5875076,19.5438777 12.212993,18.4116677 C10.215395,16.7662139 7.93121943,13.3387376 8.42846162,12.4604802 Z" id="Path-52" fill="#FFEEC1"></path>
          </g>
        </g>
        <rect id="Rectangle-34" fill="#FBBB74" x="23" y="167.760608" width="112" height="27.2393921"></rect>
        <text id="悬梁刺股-copy" font-family="HYk2gj, HYLingXinJ" font-size="26" font-weight="normal" fill="#FFFFFF">
          <tspan x="28" y="197">悬梁刺股</tspan>
        </text>
        <rect id="Rectangle-35" fill="#253D53" x="28" y="163" width="102" height="5"></rect>
        <path d="M29.2070325,157 C29.8599614,159.308505 31.9824458,161 34.5,161 C37.0175542,161 39.1400386,159.308505 39.7929675,157 L29.2070325,157 Z" id="Combined-Shape" fill="#8B572A"></path>
        <polygon id="Path-57" fill="#8B572A" points="32.9928425 160.348843 31.3692833 163.11557 38.2362432 163.11557 36.353172 160.122318"></polygon>
        <polygon id="Path-58" fill="#F8F5D4" points="33.5167558 157.004826 33.5167558 137.472849 34.7930427 134.997787 35.9212953 137.472849 35.9212953 157.004826"></polygon>
        <circle id="Oval-36" fill="#FFBA4A" filter="url(#filter-2)" cx="34.5" cy="131.5" r="5.5"></circle>
        <path d="M35.6671488,129 C35.6671488,129 33.7438102,130.008778 34.0288107,132 C34.3138112,133.991222 35.2084053,135 35.2084053,135 C35.2084053,135 36.4744843,133.089254 35.8042852,132.055463 C35.1340862,131.021671 35.6671488,129 35.6671488,129 Z" id="Path-59" fill="#FFBA4A"></path>
        <path d="M118.079736,158.442562 C117.834555,158.331727 116.994313,158.182801 116.862164,158.31459 C116.730014,158.44638 116.326172,159.079115 116.306428,159.013906 C116.286684,158.948696 119.395571,160.884288 119.395571,160.884288 C119.395571,160.884288 120.496746,161.477078 121.086036,161.801252 C121.3859,161.96621 121.641644,162.104581 121.641644,162.104581 L121.673624,161.800318 L120.770994,160.887058 C120.770994,160.887058 118.324917,158.553397 118.079736,158.442562 Z" id="Path-60" fill="#E14D3E" transform="translate(118.989979, 160.183746) rotate(84.000000) translate(-118.989979, -160.183746) "></path>
        <path d="M117.241516,163.436959 C117.241516,163.436959 117.22704,163.958392 117.424702,163.958392 C117.622365,163.958392 117.992278,163.337877 118.052977,163.602318 C118.113675,163.866759 118.02599,164.59455 118.231409,164.59455 C118.545374,164.59455 118.386755,163.434179 118.694826,163.958392 C119.002896,164.482606 119.358931,165.987883 119.526746,166.091964 C119.691113,166.193907 119.823945,163.988659 119.912367,163.602318 C120.00079,163.215977 121.517854,163.276676 121.227055,163.117666 C120.936257,162.958656 119.003267,163.02842 118.545374,163.02842 C118.087481,163.02842 117.390637,163.188534 117.100399,163.02842 C116.81016,162.868306 117.241516,163.436959 117.241516,163.436959 Z" id="Path-61" fill="#E14D3E"></path>
        <g id="Group-8" transform="translate(72.000000, 0.000000)" stroke="#AE833D" stroke-width="2.4" stroke-linecap="round" stroke-linejoin="round">
          <path d="M0,74.9564761 C0,74.9564761 5.53500782,77.9373227 9.37750057,76.2716757 C13.2199933,74.6060287 11.9631427,71.0521752 11.9631427,71.0521752 L11.9631427,38.8792675 C11.9631427,32.022892 11.9631427,0.980963782 11.9631427,0.980963782" id="Path-62"></path>
          <path d="M0,73.297407 C0,73.297407 5.33673693,73.5525371 7.74773042,72.7563198 C10.1587239,71.9601025 10.794574,70.9263706 10.794574,70.9263706 L10.8058806,69.8333333" id="Path-63"></path>
          <path d="M0.00599692983,69.8333333 C0.00599692983,69.8333333 -0.212399864,71.7460751 1.98674279,72.657967 C4.18588544,73.5698589 7.67011768,74.711045 9.34350129,74.399252 C11.0168849,74.0874589 11.0972216,72.8226713 11.0972216,72.8226713" id="Path-64"></path>
        </g>
      </g>
      <g id="Group-6" transform="translate(3.000000, 165.000000)">
        <g id="Group-5">
          <g id="Rectangle-12-Copy">
            <use fill="#FFFFFF" fill-rule="evenodd" xlink:href="#path-3"></use>
            <path stroke="#2A7FCF" stroke-width="4" d="M2.11702615,7.34464317 C1.80129123,6.51323496 2.10912316,6.01970352 2.98544133,5.94198737 C3.07909122,5.93297919 3.23380694,5.91824208 3.46350612,5.89675271 C3.84771453,5.86080832 4.30229627,5.81907563 4.82494462,5.77203673 C6.3198978,5.6374894 8.05945697,5.48750056 10.0251658,5.32592688 C15.644191,4.86406471 21.9465382,4.40211995 28.7844925,3.97093877 C48.3200874,2.73908188 68.2284114,2 87.3251733,2 C106.421485,2 126.141628,2.73765425 145.364115,3.96711835 C152.092256,4.39744807 158.276976,4.8584747 163.778379,5.31941117 C165.702856,5.48065402 167.404114,5.63033218 168.864673,5.76459633 C169.375253,5.81153217 169.819109,5.85317144 170.194057,5.88903295 C170.418159,5.91046695 170.568987,5.92516106 170.644355,5.93263405 C171.535192,6.01485615 171.830593,6.49169969 171.512459,7.30963408 L164.409943,25.5704807 C163.430353,28.0890467 163.416696,31.9428655 164.377977,34.4700357 L171.533705,53.2821621 C171.789293,53.9540942 171.764187,53.9867057 171.038009,53.9142613 C170.976146,53.9074085 170.819503,53.8905831 170.589085,53.8662847 C170.206641,53.8259547 169.75482,53.7792203 169.235818,53.7266155 C167.754887,53.5765117 166.031624,53.4093374 164.083605,53.2293653 C158.521013,52.7154525 152.270522,52.2016487 145.472672,51.7221444 C126.049337,50.3520682 106.126065,49.5299921 86.8246217,49.5299921 C67.5231773,49.5299921 47.6000946,50.3520683 28.1770739,51.7221446 C21.3793339,52.2016489 15.1289608,52.7154528 9.56648628,53.2293657 C7.61850869,53.4093378 5.89528412,53.5765122 4.41438734,53.7266159 C3.89539731,53.7792208 3.44358628,53.8259552 3.06115147,53.8662852 C2.83073876,53.8905836 2.67410025,53.9074091 2.59343333,53.9162277 C1.89065737,53.9876663 1.88116517,53.9752181 2.14282217,53.3036093 L9.23465046,35.1006414 C10.2186728,32.5748997 10.2364124,28.7249967 9.27275371,26.1874449 L2.11702615,7.34464317 L2.11702615,7.34464317 Z"></path>
          </g>
          <text id="悬梁刺股" font-family="HYk2gj, HYLingXinJ" font-size="26" font-weight="normal" fill="#2A7FCF">
            <tspan x="36" y="35">悬梁刺股</tspan>
          </text>
        </g>
      </g>
      <path d="M137.572937,85.3181328 C136.604638,84.9517766 135.556334,84.7514859 134.461826,84.7514859 C129.552629,84.7514859 125.572937,88.7809231 125.572937,93.7514859 C125.572937,98.7220486 129.552629,102.751486 134.461826,102.751486 C135.556334,102.751486 136.604638,102.551195 137.572937,102.184839 C134.198122,100.907976 131.79516,97.6138598 131.79516,93.7514859 C131.79516,89.8891119 134.198122,86.5949953 137.572937,85.3181328 Z" id="Combined-Shape" fill="#FFF576" transform="translate(131.572937, 93.751486) rotate(-24.000000) translate(-131.572937, -93.751486) "></path>
    </g>
  </g>
</g>
</svg>
