<?xml version="1.0" encoding="UTF-8"?>
<svg width="211px" height="53px" viewBox="0 0 211 53" version="1.1" xmlns="http://www.w3.org/2000/svg" xmlns:xlink="http://www.w3.org/1999/xlink">
    <!-- Generator: Sketch 48.1 (47250) - http://www.bohemiancoding.com/sketch -->
    <title>所向披靡</title>
    <desc>Created with Sketch.</desc>
    <defs></defs>
    <g id="Artboard-Copy" stroke="none" stroke-width="1" fill="none" fill-rule="evenodd" transform="translate(-134.000000, -33.000000)">
        <path d="M144.826,62.288 L150.55,62.288 L150.55,49.706 L144.988,49.706 L144.988,55.646 C144.988,57.752 144.988,59.966 144.826,62.288 Z M151.792,67.31 L150.55,67.31 L150.55,63.8 L144.718,63.8 C144.07,71.36 141.856,79.406 134.512,85.238 L133.972,84.698 C137.644,76.058 137.698,64.988 137.698,55.376 L137.698,38.042 L143.692,39.932 C147.148,37.826 150.712,35.342 152.71,33.56 L160.216,40.04 C159.514,40.634 158.272,40.688 156.49,40.094 C153.574,40.796 149.254,41.498 144.988,41.984 L144.988,48.194 L150.01,48.194 L153.25,44.63 L159.946,49.706 C159.622,50.138 158.92,50.678 157.786,50.894 L157.786,65.69 C157.732,66.068 154.114,67.31 151.792,67.31 Z M176.254,52.406 L179.764,47.546 C179.764,47.546 183.76,50.84 186.082,53.054 C185.92,53.648 185.326,53.918 184.57,53.918 L180.358,53.918 L180.358,82.43 C180.358,82.862 178.036,84.482 173.986,84.482 L172.528,84.482 L172.528,53.918 L168.1,53.918 C168.1,64.178 166.858,77.354 152.224,85.076 L151.738,84.482 C159.622,75.41 160.54,64.016 160.54,53.54 L160.54,37.502 L167.776,39.77 C171.61,37.664 175.606,35.126 177.874,33.344 L185.65,40.364 C184.948,40.958 183.598,41.012 181.762,40.364 C178.306,41.066 173.176,41.768 168.1,42.254 L168.1,52.406 L176.254,52.406 Z M209.565647,66.338 L216.153647,66.338 L216.153647,55.268 L209.565647,55.268 L209.565647,66.338 Z M223.335647,56.456 L223.335647,70.712 C223.281647,71.144 219.825647,72.602 217.395647,72.602 L216.153647,72.602 L216.153647,67.85 L209.565647,67.85 L209.565647,71.9 C209.565647,72.602 206.487647,74.114 203.571647,74.114 L202.545647,74.114 L202.545647,50.948 L209.781647,53.756 L215.613647,53.756 L218.853647,50.246 L225.495647,55.268 C225.117647,55.7 224.415647,56.186 223.335647,56.456 Z M230.679647,40.742 L237.645647,46.142 C237.321647,46.574 236.619647,47.114 235.485647,47.33 L235.485647,76.49 C235.485647,81.566 234.297647,84.374 225.603647,85.13 C225.387647,82.646 225.009647,80.918 223.929647,79.73 C222.849647,78.596 221.553647,77.678 218.313647,77.138 L218.313647,76.436 C218.313647,76.436 224.901647,76.868 226.629647,76.868 C227.547647,76.868 227.817647,76.436 227.817647,75.68 L227.817647,46.088 L198.225647,46.088 L198.225647,82.268 C198.225647,83.186 195.039647,85.022 191.799647,85.022 L190.557647,85.022 L190.557647,41.336 L198.819647,44.576 L205.839647,44.576 C206.649647,41.228 207.459647,36.962 207.891647,33.992 L219.123647,36.476 C218.907647,37.178 218.367647,37.61 217.071647,37.61 C214.965647,39.608 212.265647,42.308 209.457647,44.576 L227.277647,44.576 L230.679647,40.742 Z M279.975295,56.834 L269.607295,56.834 C270.903295,61.64 273.009295,65.366 275.655295,68.39 C277.653295,64.826 279.057295,60.938 279.975295,56.834 Z M266.799295,55.322 L271.173295,55.322 L271.173295,44.792 L266.799295,44.792 L266.799295,55.322 Z M252.759295,48.356 L252.759295,56.618 C254.973295,56.132 257.241295,55.646 259.509295,55.106 L259.509295,48.356 L252.759295,48.356 Z M283.539295,51.434 L290.073295,57.212 C289.695295,57.86 289.209295,58.022 287.859295,58.184 C286.185295,63.476 283.809295,68.336 280.299295,72.494 C283.809295,74.978 287.805295,76.76 292.071295,78.164 L291.963295,78.758 C288.777295,79.352 286.347295,81.62 285.159295,85.184 C281.379295,82.862 278.301295,80.27 275.817295,76.922 C271.389295,80.54 265.719295,83.348 258.429295,85.238 L258.051295,84.644 C264.477295,81.62 269.445295,77.462 273.063295,72.44 C271.011295,68.39 269.607295,63.314 268.689295,56.834 L266.799295,56.834 C266.637295,65.96 265.125295,77.84 253.515295,85.238 L253.029295,84.86 C258.807295,76.166 259.455295,65.204 259.509295,55.7 C257.835295,57.05 255.621295,58.724 252.759295,60.668 L252.759295,76.868 C252.759295,81.836 251.733295,84.482 244.173295,85.13 C244.065295,82.808 243.849295,81.08 243.147295,79.946 C242.499295,78.866 241.581295,78.11 239.259295,77.624 L239.259295,76.922 C239.259295,76.922 243.471295,77.192 244.497295,77.192 C245.253295,77.192 245.469295,76.976 245.469295,76.382 L245.469295,65.474 L243.417295,66.716 C243.147295,67.418 242.553295,68.066 241.797295,68.228 L239.151295,59.264 C240.501295,59.048 242.715295,58.67 245.469295,58.13 L245.469295,48.356 L240.177295,48.356 L239.745295,46.844 L245.469295,46.844 L245.469295,33.776 L254.757295,34.64 C254.649295,35.45 254.109295,35.99 252.759295,36.206 L252.759295,45.98 L255.297295,41.876 C255.297295,41.876 257.673295,44.198 259.509295,46.25 L259.509295,40.418 L267.879295,43.28 L271.173295,43.28 L271.173295,34.1 L280.461295,34.856 C280.353295,35.612 279.975295,36.152 278.463295,36.422 L278.463295,43.28 L281.325295,43.28 L285.213295,39.446 L291.747295,45.71 C291.315295,46.196 290.829295,46.358 289.641295,46.412 C287.481295,48.356 283.755295,51.11 281.001295,52.676 L280.623295,52.406 C281.055295,50.3 281.541295,47.168 281.811295,44.792 L278.463295,44.792 L278.463295,55.322 L279.597295,55.322 L283.539295,51.434 Z M303.404942,42.038 L303.404942,55.106 C303.404942,64.502 302.972942,76.868 292.496942,84.914 L292.010942,84.59 C296.114942,75.896 296.222942,64.826 296.222942,55.106 L296.222942,37.718 L304.484942,40.526 L317.390942,40.526 C317.120942,40.418 316.904942,40.256 316.634942,40.094 C316.526942,37.88 315.392942,35.612 314.258942,34.37 L314.582942,34.1 C325.328942,33.128 325.058942,38.744 321.764942,40.526 L333.752942,40.526 L337.316942,35.612 C337.316942,35.612 341.366942,38.96 343.742942,41.174 C343.580942,41.768 342.986942,42.038 342.230942,42.038 L303.404942,42.038 Z M316.256942,52.028 L316.256942,60.344 C316.256942,60.506 315.770942,60.83 314.960942,61.1 L322.250942,61.748 C322.142942,62.45 321.764942,63.044 320.252942,63.26 L320.252942,83.456 C320.252942,83.996 317.174942,85.13 314.474942,85.13 L313.232942,85.13 L313.232942,78.056 L302.378942,78.056 L301.892942,76.544 L313.232942,76.544 L313.232942,72.278 L304.484942,72.278 L303.998942,70.766 L313.232942,70.766 L313.232942,66.878 L304.160942,66.878 L303.674942,65.366 L313.232942,65.366 L313.232942,61.586 C312.530942,61.694 311.774942,61.802 311.018942,61.802 L309.884942,61.802 L309.884942,56.942 C308.156942,58.778 306.158942,60.398 303.890942,61.856 L303.350942,61.154 C305.888942,57.806 307.454942,53.324 308.372942,48.842 L304.808942,48.842 L304.376942,47.33 L309.884942,47.33 L309.884942,42.47 L318.038942,43.172 C317.930942,43.82 317.552942,44.306 316.256942,44.522 L316.256942,47.33 L316.364942,47.33 L318.848942,44.036 C318.848942,44.036 321.386942,46.142 323.114942,47.708 L323.006942,47.33 L327.704942,47.33 L327.704942,42.416 L335.966942,43.118 C335.858942,43.82 335.480942,44.306 334.184942,44.522 L334.184942,47.33 L336.236942,47.33 L338.990942,43.604 C338.990942,43.604 342.068942,46.196 343.904942,47.978 C343.742942,48.572 343.202942,48.842 342.500942,48.842 L335.102942,48.842 C337.154942,51.488 340.556942,53.432 344.012942,54.35 L343.958942,54.89 C341.636942,55.592 340.178942,57.644 339.422942,61.046 C336.776942,58.616 335.210942,55.268 334.184942,50.84 L334.184942,59.696 C334.184942,60.128 331.322942,61.154 328.838942,61.154 L327.704942,61.154 L327.704942,56.24 C325.976942,57.914 323.870942,59.372 321.548942,60.668 L321.062942,59.912 C323.546942,56.942 325.058942,53 325.922942,48.842 L323.438942,48.842 L323.276942,48.248 C323.060942,48.68 322.628942,48.842 321.980942,48.842 L316.256942,48.842 L316.256942,49.814 C326.624942,51.326 321.332942,59.21 317.066942,55.646 C317.066942,54.458 316.742942,53.162 316.256942,52.028 Z M335.912942,76.49 L338.828942,72.926 C338.828942,72.926 342.122942,75.356 344.120942,77.138 C343.958942,77.732 343.418942,78.002 342.662942,78.002 L330.944942,78.002 L330.944942,83.618 C330.944942,84.104 327.866942,85.238 325.166942,85.238 L323.924942,85.238 L323.924942,61.316 L332.942942,62.126 C332.834942,62.828 332.456942,63.422 330.944942,63.638 L330.944942,65.366 L335.156942,65.366 L338.072942,61.802 C338.072942,61.802 341.366942,64.232 343.364942,66.014 C343.202942,66.608 342.662942,66.878 341.906942,66.878 L330.944942,66.878 L330.944942,70.766 L334.886942,70.766 L337.748942,67.256 C337.748942,67.256 340.934942,69.686 342.932942,71.414 C342.770942,72.008 342.230942,72.278 341.474942,72.278 L330.944942,72.278 L330.944942,76.49 L335.912942,76.49 Z" id="所向披靡" fill="#000000"></path>
    </g>
</svg>