<?xml version="1.0" encoding="UTF-8"?>
<svg width="211px" height="53px" viewBox="0 0 211 53" version="1.1" xmlns="http://www.w3.org/2000/svg" xmlns:xlink="http://www.w3.org/1999/xlink">
    <!-- Generator: Sketch 48.1 (47250) - http://www.bohemiancoding.com/sketch -->
    <title>生无可恋</title>
    <desc>Created with Sketch.</desc>
    <defs></defs>
    <g id="Artboard-Copy-3" stroke="none" stroke-width="1" fill="none" fill-rule="evenodd" transform="translate(-133.000000, -33.000000)">
        <path d="M173.068,80.702 L177.55,75.032 C177.55,75.032 182.572,78.812 185.596,81.35 C185.434,81.944 184.84,82.214 183.976,82.214 L134.782,82.214 L134.35,80.702 L155.464,80.702 L155.464,64.178 L141.37,64.178 L140.938,62.666 L155.464,62.666 L155.464,48.788 L147.256,48.788 C143.746,54.62 139.426,59.048 134.296,62.342 L133.756,61.964 C137.59,55.538 141.316,45.494 142.774,35.72 L153.682,38.852 C153.466,39.554 152.764,40.04 151.468,40.04 C150.442,42.632 149.362,45.062 148.12,47.276 L155.464,47.276 L155.464,34.208 L166.102,35.18 C165.994,35.99 165.616,36.53 164.104,36.746 L164.104,47.276 L170.692,47.276 L174.958,42.038 C174.958,42.038 179.656,45.386 182.68,47.924 C182.518,48.518 181.924,48.788 181.06,48.788 L164.104,48.788 L164.104,62.666 L169.072,62.666 L173.392,57.266 C173.392,57.266 178.306,60.884 181.276,63.314 C181.114,63.908 180.52,64.178 179.71,64.178 L164.104,64.178 L164.104,80.702 L173.068,80.702 Z M235.809647,67.85 L235.971647,74.816 C238.023647,75.68 238.509647,76.598 238.509647,78.11 C238.509647,81.296 235.917647,82.808 226.791647,82.808 L221.823647,82.808 C215.613647,82.808 214.155647,81.512 214.155647,76.22 L214.155647,55.754 L213.075647,55.754 C211.293647,67.85 205.893647,77.786 187.911647,84.914 L187.425647,84.158 C200.169647,75.788 204.003647,66.338 205.245647,55.754 L188.451647,55.754 L188.019647,54.242 L205.353647,54.242 C205.785647,49.922 205.731647,45.386 205.785647,40.634 L191.799647,40.634 L191.367647,39.122 L222.795647,39.122 L226.953647,33.614 C226.953647,33.614 231.705647,37.286 234.513647,39.77 C234.351647,40.364 233.703647,40.634 232.947647,40.634 L214.047647,40.634 C213.939647,45.44 213.831647,49.976 213.291647,54.242 L225.765647,54.242 L230.031647,48.626 C230.031647,48.626 234.891647,52.352 237.753647,54.89 C237.645647,55.484 236.997647,55.754 236.187647,55.754 L222.093647,55.754 L222.093647,74.114 C222.093647,74.978 222.417647,75.302 223.767647,75.302 L227.763647,75.302 C228.897647,75.302 230.085647,75.302 230.787647,75.248 C231.489647,75.194 231.921647,75.032 232.353647,74.492 C233.055647,73.52 234.027647,71.036 235.269647,67.85 L235.809647,67.85 Z M253.245295,65.312 L260.481295,65.312 L260.481295,50.678 L253.245295,50.678 L253.245295,65.312 Z M268.041295,51.866 L268.041295,69.686 C267.987295,70.118 264.261295,71.414 261.777295,71.414 L260.481295,71.414 L260.481295,66.824 L253.245295,66.824 L253.245295,71.306 C253.245295,72.008 250.113295,73.682 246.927295,73.682 L245.847295,73.682 L245.847295,46.142 L253.515295,49.166 L259.941295,49.166 L263.289295,45.494 L270.201295,50.732 C269.823295,51.164 269.175295,51.65 268.041295,51.866 Z M279.165295,38.69 L283.485295,33.236 C283.485295,33.236 288.399295,36.854 291.369295,39.338 C291.207295,39.932 290.559295,40.202 289.749295,40.202 L283.323295,40.202 L283.323295,75.842 C283.323295,80.972 281.757295,84.59 272.199295,85.13 C272.037295,82.592 271.443295,80.648 269.985295,79.514 C268.581295,78.38 266.961295,77.516 262.641295,76.814 L262.641295,76.166 C262.641295,76.166 272.091295,76.706 273.981295,76.706 C274.953295,76.706 275.331295,76.274 275.331295,75.518 L275.331295,40.202 L240.069295,40.202 L239.637295,38.69 L279.165295,38.69 Z M300.218942,66.5 L300.812942,66.446 C304.376942,73.898 302.432942,79.19 299.246942,80.918 C296.978942,82.16 294.008942,81.242 293.198942,78.704 C292.496942,76.22 294.008942,74.438 296.060942,73.466 C298.112942,72.44 300.434942,69.74 300.218942,66.5 Z M331.052942,69.632 L331.214942,76.112 C333.428942,76.922 333.968942,77.786 333.968942,79.136 C333.968942,82.376 330.998942,83.402 320.252942,83.402 L313.664942,83.402 C306.914942,83.402 305.240942,82.268 305.240942,77.3 L305.240942,64.664 L314.798942,65.366 C314.690942,66.122 314.204942,66.554 313.070942,66.77 L313.070942,75.788 C313.070942,76.544 313.340942,76.76 315.068942,76.76 L321.170942,76.76 C322.898942,76.76 324.734942,76.76 325.652942,76.706 C326.570942,76.652 326.948942,76.49 327.434942,75.896 C328.190942,74.978 329.162942,72.926 330.566942,69.632 L331.052942,69.632 Z M315.770942,62.558 L316.202942,62.288 C332.402942,66.068 324.788942,78.542 318.524942,72.764 C318.632942,69.2 317.390942,65.312 315.770942,62.558 Z M328.784942,47.222 L329.162942,46.898 C348.332942,48.464 343.310942,62.99 336.020942,58.508 C334.940942,54.404 331.862942,49.976 328.784942,47.222 Z M330.080942,65.636 L330.512942,65.312 C349.574942,69.47 343.094942,84.482 335.912942,78.758 C335.534942,74.06 333.050942,69.038 330.080942,65.636 Z M332.726942,41.876 L336.614942,36.854 C336.614942,36.854 340.988942,40.202 343.634942,42.524 C343.472942,43.118 342.878942,43.388 342.068942,43.388 L327.812942,43.388 L327.812942,61.316 C327.758942,61.586 325.490942,62.774 321.548942,62.774 L320.144942,62.774 L320.144942,43.388 L315.446942,43.388 L315.446942,61.694 C315.392942,61.964 313.124942,63.152 309.182942,63.152 L307.778942,63.152 L307.778942,50.84 C307.562942,50.84 307.346942,50.84 307.130942,50.786 C303.242942,55.376 298.220942,58.346 293.252942,60.182 L292.712942,59.642 C295.790942,56.564 299.084942,51.326 301.136942,45.818 L307.778942,49.22 L307.778942,43.388 L293.414942,43.388 L292.982942,41.876 L316.634942,41.876 L316.364942,41.714 C315.824942,38.744 313.988942,35.72 312.152942,33.83 L312.476942,33.56 C324.680942,32.912 325.112942,39.608 321.710942,41.876 L332.726942,41.876 Z" id="生无可恋" fill="#000000"></path>
    </g>
</svg>