<?xml version="1.0" encoding="UTF-8"?>
<svg width="273px" height="263px" viewBox="0 0 273 263" version="1.1" xmlns="http://www.w3.org/2000/svg" xmlns:xlink="http://www.w3.org/1999/xlink">
    <!-- Generator: Sketch 43.1 (39012) - http://www.bohemiancoding.com/sketch -->
    <title>Group 8</title>
    <desc>Created with Sketch.</desc>
    <defs>
        <filter x="-29.2%" y="-29.2%" width="158.4%" height="158.4%" filterUnits="objectBoundingBox" id="filter-1">
            <feGaussianBlur stdDeviation="18" in="SourceGraphic"></feGaussianBlur>
        </filter>
        <path d="M0.247309542,8.05468528 C-0.538114605,5.9864691 0.609457033,4.1448516 2.80876503,3.94980628 C2.80876503,3.94980628 43.5695978,3.0159346e-14 87.3251733,2.84217094e-14 C131.080749,2.84217094e-14 170.841693,3.94239335 170.841693,3.94239335 C173.041708,4.1453333 174.17675,5.97696928 173.376431,8.03462193 L166.273916,26.2954685 C165.473797,28.352604 165.462113,31.6947301 166.24731,33.758982 L173.403037,52.5711084 C174.188461,54.6359576 173.040295,56.1239396 170.839472,55.9043827 C170.839472,55.9043827 130.824353,51.5299921 86.8246217,51.5299921 C42.8248899,51.5299921 2.81078082,55.9043827 2.81078082,55.9043827 C0.609590582,56.1283153 -0.526403823,54.6455076 0.279259178,52.5775701 L7.37108746,34.3746022 C8.17415691,32.3133217 8.19204215,28.9751326 7.4030371,26.897487 L0.247309542,8.05468528 Z" id="path-2"></path>
        <rect id="path-3" x="0" y="4" width="39.0322581" height="66" rx="7"></rect>
    </defs>
    <g id="Page-1" stroke="none" stroke-width="1" fill="none" fill-rule="evenodd">
        <g id="实时绩效-小分-copy-12" transform="translate(-52.000000, 0.000000)">
            <g id="Group-8" transform="translate(96.000000, 31.000000)">
                <g id="Group-5">
                    <circle id="Oval-35" fill="#149679" opacity="0.399513134" filter="url(#filter-1)" cx="92.5" cy="95.5" r="92.5"></circle>
                    <g id="Group-53" transform="translate(5.000000, 0.000000)">
                        <g id="Group-13" transform="translate(7.000000, 15.000000)">
                            <ellipse id="Combined-Shape" stroke="#2CB495" stroke-width="4" fill="#3A7265" cx="80.5" cy="80.5" rx="80.5" ry="80.5"></ellipse>
                            <polyline id="Path-75" stroke-opacity="0.156306612" stroke="#38C972" points="74.203667 88.8816196 70.3359593 47.9882315 63.554187 86.4933171 60.3702497 44.9986584 50.6170823 86.4933171 40.5982371 19 24.317835 95.8519487 11.7092852 64.5595272 3 90.7485929"></polyline>
                            <polyline id="Path-75-Copy" stroke-opacity="0.156306612" stroke="#38C972" points="156.203667 88.8816196 152.335959 47.9882315 145.554187 86.4933171 142.37025 44.9986584 132.617082 86.4933171 102.649685 22.18917 91.1365122 91.5415603 81.6729273 65.3309335 78.5310438 88.8816196"></polyline>
                            <polygon id="Star-Copy" fill="#2CB395" points="109 23 105.473288 24.854102 106.14683 20.927051 103.293661 18.145898 107.236644 17.572949 109 14 110.763356 17.572949 114.706339 18.145898 111.85317 20.927051 112.526712 24.854102"></polygon>
                        </g>
                        <path d="M128.30449,47.5755466 C128.30449,47.5755466 132.783777,47.0367126 133.948382,49.058715 C134.467952,49.9607997 135.870206,53.8461021 135.772823,58.1317324 C135.67544,62.4173627 133.948382,69.2634648 133.948382,69.2634648 L130.564947,69.2634648 L120.912846,47 L128.30449,47.5755466 Z" id="Path-41" fill="#7F411A"></path>
                        <polyline id="Path-73" stroke="#CBF06D" stroke-linecap="round" stroke-linejoin="round" points="79.4683527 126.651018 85.2420657 128.635831 87.6454014 127.110759 96.7268716 130.146635 98.8218639 127.972378 104.457654 131.118036 109.117288 128.864117 113.119017 130.510861 114.418578 128.166578 122.390724 131.003101 127.899294 128.777717 130.959346 130.741128 137.803542 128.391297 140.313886 130.792651 142.862674 127.795615 148.018115 131.09386"></polyline>
                        <path d="M97.0743395,47.5755466 C97.0743395,47.5755466 92.595053,47.0367126 91.4304482,49.058715 C90.8911157,49.9951113 89.7009298,54.7821341 89.8136608,59.2393779 C89.9263918,63.6966217 91.4304482,69.2634648 91.4304482,69.2634648 L94.8138832,69.2634648 L104.465984,47" id="Path-41-Copy" fill="#7F411A"></path>
                        <g id="Group-52" transform="translate(79.000000, 87.000000)">
                            <g id="Group-50" transform="translate(0.000000, 8.000000)" fill="#D3FBFF">
                                <path d="M0.032022558,36 C0.0107466049,35.5026548 0,35.0025824 0,34.5 C0,15.4461761 15.4461761,0 34.5,0 C53.5538239,0 69,15.4461761 69,34.5 C69,35.0025824 68.9892534,35.5026548 68.9679774,36 L0.032022558,36 Z" id="Mask"></path>
                            </g>
                            <g id="Group-48-Copy" transform="translate(22.000000, 0.000000)">
                                <rect id="Rectangle-7" fill="#E7FDF8" x="9" y="13" width="6" height="31"></rect>
                                <polygon id="Path-81" fill="#A1E2E8" points="9.16477227 14.8536396 5.10436762 23.013055 1 17.5748021"></polygon>
                                <polygon id="Path-81-Copy" fill="#A1E2E8" transform="translate(19.436869, 18.960493) scale(-1, 1) translate(-19.436869, -18.960493) " points="23.3869528 14.9079318 19.5911535 23.013055 15.4867859 17.5748021"></polygon>
                                <path d="M9.16937993,14.7903236 L0,19.3679413 L0.19288565,9.20920809 C0.230593461,7.22324601 1.42503063,4.49119018 2.98930598,3.27725767 C2.98930598,3.27725767 2.50541551,3.21349422 4.09732175,2.73009955 C5.68922799,2.24670488 7.10435471,2.36595836 7.10435471,2.36595836 L9.16937993,14.7903236 Z" id="Path-80" fill="#F5FFFF"></path>
                                <path d="M24.6455704,14.7903236 L15.4761905,19.3679413 L15.6690761,9.20920809 C15.7067839,7.22324601 16.9012211,4.49119018 18.4654965,3.27725767 C18.4654965,3.27725767 17.981606,3.21349422 19.5735122,2.73009955 C21.1654185,2.24670488 22.5805452,2.36595836 22.5805452,2.36595836 L24.6455704,14.7903236 Z" id="Path-80-Copy" fill="#F5FFFF" transform="translate(20.060880, 10.860441) scale(-1, 1) translate(-20.060880, -10.860441) "></path>
                                <path d="M5.95238095,-1.0658141e-14 L18.5015,-1.0658141e-14 L18.5015,10.592425 C18.5015,11.2524725 18.2439401,12.2593981 17.8763354,12.8070641 C17.8763354,12.8070641 16.828198,15.5054957 12.6939777,15.5934232 C8.55975754,15.6813508 6.70124982,12.7075387 6.70124982,12.7075387 C6.28766097,12.1994411 5.95238095,11.2504302 5.95238095,10.592425 L5.95238095,-1.0658141e-14 Z" id="Rectangle-31" fill="#F8E1A0"></path>
                            </g>
                        </g>
                        <path d="M133.735293,56.9851543 C133.735293,51.4705058 128.606437,47 122.309683,47 L104.338456,47 C98.0282659,47 92.912846,51.4581268 92.912846,56.9851543 L92.912846,74.7912662 C92.912846,84.6424753 102.048783,92.6284582 113.324069,92.6284582 L113.324069,92.6284582 C124.596877,92.6284582 133.735293,84.6544958 133.735293,74.7912662" id="Rectangle-29" fill="#FFEDBD"></path>
                        <circle id="Oval-42" fill="#FFEDBD" cx="90.5" cy="70.5" r="3.5"></circle>
                        <circle id="Oval-42-Copy" fill="#FFEDBD" cx="135.5" cy="70.5" r="3.5"></circle>
                        <path d="M131.318778,47.6742636 C131.318778,47.6742636 133.925759,50.3565969 133.215611,50.433324 C132.505464,50.5100511 87.7454637,52.1637785 86.2690166,47.6742636 C84.637647,42.7136674 88.6472019,32.5045849 105.407458,30.3220997 C122.167715,28.1396145 127.585798,37.7629141 127.585798,37.7629141 C127.585798,37.7629141 125.277012,32.9010369 128.227605,32.2648355 C131.178198,31.6286342 134.735293,34.9989667 134.735293,39.9882657 C134.735293,44.9775647 131.318778,47.6742636 131.318778,47.6742636 Z" id="Path-40" fill="#7F411A"></path>
                        <rect id="Rectangle-30" fill="#7F411A" x="100" y="62" width="8.51000023" height="2.43000007" rx="1.21500003"></rect>
                        <rect id="Rectangle-30-Copy" fill="#7F411A" x="118" y="62" width="8.51000023" height="2.43000007" rx="1.21500003"></rect>
                        <ellipse id="Oval-22-Copy-3" fill="#333333" cx="103.770475" cy="68.5691294" rx="1.77047523" ry="1.56912936"></ellipse>
                        <ellipse id="Oval-22-Copy-4" fill="#333333" cx="121.770475" cy="68.5691294" rx="1.77047523" ry="1.56912936"></ellipse>
                        <ellipse id="Oval-23-Copy-2" fill="#FFCF4B" cx="98.7318841" cy="75.7765957" rx="3.73188406" ry="3.77659574"></ellipse>
                        <ellipse id="Oval-23-Copy-3" fill="#FFCF4B" cx="126.731884" cy="75.7765957" rx="3.73188406" ry="3.77659574"></ellipse>
                        <path d="M110.288209,84.0077967 C110.288209,84.0077967 111.465335,85.7688975 113.581087,85.7688975 C115.696839,85.7688975 117.021856,84.0077967 117.021856,84.0077967" id="Path-66" stroke="#333333" stroke-width="1.6" stroke-linecap="round" stroke-linejoin="round"></path>
                        <g id="Group-49" transform="translate(108.000000, 101.000000)" fill="#215382">
                            <polygon id="Path-78" points="2.01111265 0.881543271 8.61178428 0.881543271 9.1138148 4.88169736 5.55811016 8.31673725 1.58435532 4.88169736"></polygon>
                            <polygon id="Path-82" points="3.24223192 5.1486875 0.455184869 17.7882213 5.23326076 26.4791095 9.45084952 17.7882213 7.15527451 5.1486875"></polygon>
                        </g>
                        <g id="A" transform="translate(0.000000, 120.000000)">
                            <g id="Rectangle-12-Copy">
                                <use fill="#FFFFFF" fill-rule="evenodd" xlink:href="#path-2"></use>
                                <path stroke="#2CB395" stroke-width="4" d="M2.11702615,7.34464317 C1.80129123,6.51323496 2.10912316,6.01970352 2.98544133,5.94198737 C3.07909122,5.93297919 3.23380694,5.91824208 3.46350612,5.89675271 C3.84771453,5.86080832 4.30229627,5.81907563 4.82494462,5.77203673 C6.3198978,5.6374894 8.05945697,5.48750056 10.0251658,5.32592688 C15.644191,4.86406471 21.9465382,4.40211995 28.7844925,3.97093877 C48.3200874,2.73908188 68.2284114,2 87.3251733,2 C106.421485,2 126.141628,2.73765425 145.364115,3.96711835 C152.092256,4.39744807 158.276976,4.8584747 163.778379,5.31941117 C165.702856,5.48065402 167.404114,5.63033218 168.864673,5.76459633 C169.375253,5.81153217 169.819109,5.85317144 170.194057,5.88903295 C170.418159,5.91046695 170.568987,5.92516106 170.644355,5.93263405 C171.535192,6.01485615 171.830593,6.49169969 171.512459,7.30963408 L164.409943,25.5704807 C163.430353,28.0890467 163.416696,31.9428655 164.377977,34.4700357 L171.533705,53.2821621 C171.789293,53.9540942 171.764187,53.9867057 171.038009,53.9142613 C170.976146,53.9074085 170.819503,53.8905831 170.589085,53.8662847 C170.206641,53.8259547 169.75482,53.7792203 169.235818,53.7266155 C167.754887,53.5765117 166.031624,53.4093374 164.083605,53.2293653 C158.521013,52.7154525 152.270522,52.2016487 145.472672,51.7221444 C126.049337,50.3520682 106.126065,49.5299921 86.8246217,49.5299921 C67.5231773,49.5299921 47.6000946,50.3520683 28.1770739,51.7221446 C21.3793339,52.2016489 15.1289608,52.7154528 9.56648628,53.2293657 C7.61850869,53.4093378 5.89528412,53.5765122 4.41438734,53.7266159 C3.89539731,53.7792208 3.44358628,53.8259552 3.06115147,53.8662852 C2.83073876,53.8905836 2.67410025,53.9074091 2.59343333,53.9162277 C1.89065737,53.9876663 1.88116517,53.9752181 2.14282217,53.3036093 L9.23465046,35.1006414 C10.2186728,32.5748997 10.2364124,28.7249967 9.27275371,26.1874449 L2.11702615,7.34464317 L2.11702615,7.34464317 Z"></path>
                            </g>
                            <text id="超长待机" font-family="HYk2gj, HYLingXinJ" font-size="26" font-weight="normal" fill="#2CB395">
                                <tspan x="36" y="35">超长待机</tspan>
                            </text>
                        </g>
                        <g id="Group-30" transform="translate(28.000000, 53.000000)">
                            <path d="M11,4.83815536 L11,1.99579572 L11,1.99579572 C11,0.893548181 11.8926228,0 12.9950893,0 L27.0049107,0 C28.1067681,0 29,0.889787622 29,2.00425068 L29,5.10824069" id="Rectangle-39" stroke="#2CB395" stroke-width="2" fill="#3A7266"></path>
                            <g id="Rectangle-38">
                                <use fill="#3A7266" fill-rule="evenodd" xlink:href="#path-3"></use>
                                <rect stroke="#2CB395" stroke-width="2" x="1" y="5" width="37.0322581" height="64" rx="7"></rect>
                            </g>
                            <rect id="Rectangle-48" fill="#4DEC8F" x="2" y="59" width="35" height="9" rx="1"></rect>
                            <rect id="Rectangle-48-Copy" fill="#4DEC8F" x="2" y="49" width="35" height="9" rx="1"></rect>
                            <rect id="Rectangle-48-Copy-2" fill="#4DEC8F" x="2" y="39" width="35" height="9" rx="1"></rect>
                            <rect id="Rectangle-48-Copy-3" fill="#4DEC8F" x="2" y="29" width="35" height="9" rx="1"></rect>
                            <rect id="Rectangle-48-Copy-4" fill="#4DEC8F" x="2" y="19" width="35" height="9" rx="1"></rect>
                            <rect id="Rectangle-48-Copy-5" fill="#4DEC8F" x="2" y="9" width="35" height="9" rx="1"></rect>
                            <rect id="Rectangle-38" stroke="#2CB395" stroke-width="2" x="1" y="5" width="37.0322581" height="64" rx="7"></rect>
                        </g>
                        <g id="Group-31" transform="translate(113.000000, 21.500000) rotate(90.000000) translate(-113.000000, -21.500000) translate(107.500000, 16.500000)" fill="#AFFFCF">
                            <rect id="Rectangle-41" x="0" y="0" width="11" height="3"></rect>
                            <rect id="Rectangle-41-Copy" x="0" y="7" width="11" height="3"></rect>
                        </g>
                        <path d="M106,8.99792037 C106,5.13307567 109.141873,2 113,2 L117.994141,2 C119.101946,2 120,2.8926228 120,3.99508929 L120,18.0049107 C120,19.1067681 119.10294,20 117.994141,20 L113,20 C109.134007,20 106,16.8646393 106,13.0020796 L106,8.99792037 Z" id="Rectangle-40" fill="#2CB395" transform="translate(113.000000, 11.000000) rotate(90.000000) translate(-113.000000, -11.000000) "></path>
                        <path d="M47.5871417,52.6212141 C47.5871417,52.6212141 47.5871417,46.9580446 47.5871417,39.3746958 C47.5871417,26.4726449 51.4944412,16.9872786 62.6761907,8.50627322 C83.7060522,-7.44421543 112.799284,4.84121026 112.799284,4.84121026" id="Path-65" stroke="#2CB395" stroke-width="2"></path>
                        <path d="M136.003469,53.4027997 C136.003469,53.4027997 143.125,66.1783783 143.125,50.6621622 C143.125,35.145946 129.615814,22.5675676 112.951389,22.5675676 C96.2869636,22.5675676 82.7777778,35.145946 82.7777778,50.6621622 C82.7777778,58.4202702 88.4615044,54.4923467 88.4615044,54.4923467 C88.4615044,54.4923467 93.6333657,47.2800489 112.951389,47.2800489 C132.269412,47.2800489 136.003469,53.4027997 136.003469,53.4027997 Z" id="Combined-Shape" fill="#A2E7D7"></path>
                        <polygon id="Path-79-Copy" fill="#F8E71C" points="114.962063 23 106 32.1066473 113.064464 34.2799826 109.325366 42.6371693 120.392015 32.6388201 113.196007 30.179489"></polygon>
                        <rect id="Rectangle-51" fill="#A2E7D7" transform="translate(85.285116, 40.092796) rotate(25.000000) translate(-85.285116, -40.092796) " x="81.4448377" y="34.6198234" width="7.68055556" height="10.9459459" rx="2.2"></rect>
                        <rect id="Rectangle-51-Copy-3" fill="#A2E7D7" transform="translate(141.243449, 40.092796) scale(-1, 1) rotate(25.000000) translate(-141.243449, -40.092796) " x="137.403171" y="34.6198234" width="7.68055556" height="10.9459459" rx="2.2"></rect>
                        <rect id="Rectangle-51-Copy" fill="#A2E7D7" transform="translate(97.590278, 26.945946) rotate(60.000000) translate(-97.590278, -26.945946) " x="93.75" y="21.472973" width="7.68055556" height="10.9459459" rx="2.2"></rect>
                        <rect id="Rectangle-51-Copy-2" fill="#A2E7D7" transform="translate(128.312500, 26.945946) scale(-1, 1) rotate(60.000000) translate(-128.312500, -26.945946) " x="124.472222" y="21.472973" width="7.68055556" height="10.9459459" rx="2.2"></rect>
                        <g id="Group-14" transform="translate(74.000000, 33.513514)">
                            <path d="M7.97994186,4.58187103 L2.19444444,2.18918919" id="Path-3" stroke="#A2E7D7" stroke-width="2"></path>
                            <circle id="Oval-43" fill="#F8E71C" cx="2" cy="2" r="2"></circle>
                        </g>
                        <g id="Group-14-Copy" transform="translate(95.444766, 20.426202) rotate(38.000000) translate(-95.444766, -20.426202) translate(91.444766, 17.926202)">
                            <path d="M7.97994186,4.58187103 L2.19444444,2.18918919" id="Path-3" stroke="#A2E7D7" stroke-width="2"></path>
                            <circle id="Oval-43" fill="#F8E71C" cx="2" cy="2" r="2"></circle>
                        </g>
                        <g id="Group-14-Copy-2" transform="translate(132.400709, 21.416661) rotate(97.000000) translate(-132.400709, -21.416661) translate(128.400709, 18.916661)">
                            <path d="M7.97994186,4.58187103 L2.19444444,2.18918919" id="Path-3" stroke="#A2E7D7" stroke-width="2"></path>
                            <circle id="Oval-43" fill="#F8E71C" cx="2" cy="2" r="2"></circle>
                        </g>
                        <g id="Group-14-Copy-3" transform="translate(147.893922, 37.141201) rotate(127.000000) translate(-147.893922, -37.141201) translate(143.893922, 34.641201)">
                            <path d="M7.97994186,4.58187103 L2.19444444,2.18918919" id="Path-3" stroke="#A2E7D7" stroke-width="2"></path>
                            <circle id="Oval-43" fill="#F8E71C" cx="2" cy="2" r="2"></circle>
                        </g>
                        <rect id="Rectangle-6-Copy-3" fill="#70A69A" x="80" y="49" width="4.38888889" height="11.2916074" rx="1"></rect>
                        <rect id="Rectangle-6-Copy-2" fill="#70A69A" x="141" y="51" width="4.38888889" height="10.3157895" rx="1"></rect>
                        <rect id="Rectangle-6" fill="#A2E7D7" x="82" y="47" width="7.57999992" height="15.3243243" rx="2.2"></rect>
                        <rect id="Rectangle-6-Copy" fill="#A2E7D7" x="136" y="49" width="7.57999992" height="14" rx="2.2"></rect>
                        <polygon id="Path-78-Copy" fill="#A2E7D7" points="99 45.0443266 106.466019 51.5872302 121.471719 51.6744302 129.758367 45"></polygon>
                    </g>
                </g>
            </g>
        </g>
    </g>
</svg>