<?xml version="1.0" encoding="UTF-8"?>
<svg width="295px" height="279px" viewBox="0 0 295 279" version="1.1" xmlns="http://www.w3.org/2000/svg" xmlns:xlink="http://www.w3.org/1999/xlink">
    <!-- Generator: Sketch 43.1 (39012) - http://www.bohemiancoding.com/sketch -->
    <title>Group 12</title>
    <desc>Created with Sketch.</desc>
    <defs>
        <filter x="-36.7%" y="-36.7%" width="173.4%" height="173.4%" filterUnits="objectBoundingBox" id="filter-1">
            <feGaussianBlur stdDeviation="22.6367188" in="SourceGraphic"></feGaussianBlur>
        </filter>
        <path d="M43.8736761,64.1010355 C66.6568909,64.1010355 77.755814,64.4879473 77.755814,41.8220171 C77.755814,19.1560868 61.5976025,0 38.8143877,0 C28.604648,0 9.5247796,1.70313212 3.27034884,7.98882682 C-2.98408193,14.2745215 1.84266441,29.3132684 1.84266441,41.8220171 C1.84266441,64.4879473 21.0904613,64.1010355 43.8736761,64.1010355 Z" id="path-2"></path>
        <ellipse id="path-4" cx="6.47463002" cy="5.44692737" rx="6.47463002" ry="5.44692737"></ellipse>
        <path d="M18.2938837,8.55010517 C18.5660479,8.55010517 18.671626,8.34999059 18.5377603,8.12642591 C18.5377603,8.12642591 14.6623327,1.06851033 9.57469185,1.06851033 C4.48705096,1.06851033 0.611623407,8.12642591 0.611623407,8.12642591 C0.474148529,8.36041751 0.59565027,8.55010517 0.855500011,8.55010517 L18.2938837,8.55010517 Z" id="path-6"></path>
        <path d="M-4.26325641e-14,1.99010249 C-4.26325641e-14,0.890999234 0.887729645,4.26325641e-14 2,4.26325641e-14 L2,4.26325641e-14 C3.1045695,4.26325641e-14 4,0.89544291 4,1.99010249 L4,19.1637437 C4,20.2628469 3.49531555,21.8817564 2.85978699,22.7983842 L2,24.0384615 L1.14021301,22.7983842 C0.510490754,21.8901309 -4.26325641e-14,20.2584032 -4.26325641e-14,19.1637437 L-4.26325641e-14,1.99010249 Z" id="path-8"></path>
        <path d="M15.2616279,0 L15.2616279,3.74091462 C15.2616279,7.01478672 11.8461228,9.66878444 7.63081395,9.66878444 C3.41643178,9.66878444 0,7.01395785 0,3.73820451 L0,0 L15.2616279,0 Z" id="path-10"></path>
        <path d="M14.3077762,0 L14.3077762,3.40083147 C14.3077762,6.37707884 11.1057401,8.78980404 7.15388808,8.78980404 C3.20290479,8.78980404 0,6.37632532 0,3.39836774 L0,0 L14.3077762,0 Z" id="path-12"></path>
        <path d="M0.247309542,8.05468528 C-0.538114605,5.9864691 0.609457033,4.1448516 2.80876503,3.94980628 C2.80876503,3.94980628 43.5695978,3.0159346e-14 87.3251733,2.84217094e-14 C131.080749,2.84217094e-14 170.841693,3.94239335 170.841693,3.94239335 C173.041708,4.1453333 174.17675,5.97696928 173.376431,8.03462193 L166.273916,26.2954685 C165.473797,28.352604 165.462113,31.6947301 166.24731,33.758982 L173.403037,52.5711084 C174.188461,54.6359576 173.040295,56.1239396 170.839472,55.9043827 C170.839472,55.9043827 130.824353,51.5299921 86.8246217,51.5299921 C42.8248899,51.5299921 2.81078082,55.9043827 2.81078082,55.9043827 C0.609590582,56.1283153 -0.526403823,54.6455076 0.279259178,52.5775701 L7.37108746,34.3746022 C8.17415691,32.3133217 8.19204215,28.9751326 7.4030371,26.897487 L0.247309542,8.05468528 Z" id="path-14"></path>
    </defs>
    <g id="Page-1" stroke="none" stroke-width="1" fill="none" fill-rule="evenodd">
        <g id="实时绩效-小分-copy-11" transform="translate(-40.000000, 0.000000)">
            <g id="Group-12" transform="translate(95.000000, 39.000000)">
                <ellipse id="Oval-11" fill="#333538" cx="91.4597751" cy="110.291955" rx="26.4217128" ry="26.4217128"></ellipse>
                <circle id="Oval-35" fill="#B4846B" opacity="0.399513134" filter="url(#filter-1)" cx="92.5" cy="92.5" r="92.5"></circle>
                <g id="Group-13-Copy" transform="translate(12.000000, 10.000000)" stroke-width="4" fill="#FF9966">
                    <circle id="Oval-16" stroke="#B96941" cx="80.5" cy="80.5" r="80.5"></circle>
                    <path d="M5.97878005,111 C2.12472528,101.593187 0,91.2947214 0,80.5 C0,36.0410776 36.0410776,0 80.5,0 C124.958922,0 161,36.0410776 161,80.5 C161,91.2947214 158.875275,101.593187 155.02122,111 L5.97878005,111 Z" id="Combined-Shape" stroke="#BA6940"></path>
                </g>
                <g id="Group-9" transform="translate(57.000000, 7.000000)">
                    <g id="Group-32" transform="translate(13.000000, 21.000000)">
                        <g id="Combined-Shape" transform="translate(2.244186, 44.731844)">
                            <mask id="mask-3" fill="white">
                                <use xlink:href="#path-2"></use>
                            </mask>
                            <use id="Mask" fill="#EBFFFF" xlink:href="#path-2"></use>
                            <path d="M34.1539526,18.4206861 C34.7535516,18.016113 35.2187222,17.397775 35.3720437,16.704843 L35.9521883,14.0828963 C36.224015,12.8543832 35.4326111,11.8761299 34.1893564,11.8761299 L27.0162986,11.8761299 C25.7808675,11.8761299 24.9837973,12.8641329 25.2534668,14.0828963 L25.8336114,16.704843 C26.0505935,17.6854874 26.8740299,18.5066707 27.8293781,18.7981194 L25.5435391,86.1395248 L31.3811796,90.8298444 L37.2188201,86.1395248 L34.1539526,18.4206861 Z" fill="#4A90E2" mask="url(#mask-3)"></path>
                        </g>
                        <g id="Path-41" transform="translate(29.860465, 49.089385)">
                            <mask id="mask-5" fill="white">
                                <use xlink:href="#path-4"></use>
                            </mask>
                            <use id="Mask" fill="#999999" xlink:href="#path-4"></use>
                            <path d="M1.24512116,2.50101743 C1.24512116,2.50101743 1.99219385,4.25172962 0.249024232,7.00284879 C-0.177587016,7.67613862 -0.268852361,9.87513534 1.24512116,10.5307263 C2.75909468,11.1863172 17.9297447,12.7551889 17.9297447,12.7551889 L10.4590177,-0.250101743 L1.24512116,2.50101743 Z" fill="#E5CD86" mask="url(#mask-5)"></path>
                        </g>
                        <path d="M64.7290052,33.0967264 C65.8505683,36.0489756 66.4651163,39.2545505 66.4651163,42.6049515 C66.4651163,57.2803117 54.6744126,69.1770417 40.1298426,69.1770417 C25.5852725,69.1770417 13.7945689,57.2803117 13.7945689,42.6049515 C13.7945689,42.272851 13.800607,41.9421735 13.8125785,41.6130245 C13.6080948,41.6329081 13.400754,41.6430842 13.1910268,41.6430842 C9.70117606,41.6430842 6.87209302,38.8254376 6.87209302,35.3496944 C6.87209302,31.8739512 9.70117606,29.0563046 13.1910268,29.0563046 C14.4477944,29.0563046 15.618869,29.4217165 16.6029839,30.051683 L16.6029839,14.3328096 C16.6029839,11.8812425 18.5944395,9.89385475 21.0443013,9.89385475 L60.2876878,9.89385475 C62.7405596,9.89385475 64.7290052,11.8899795 64.7290052,14.3328096 L64.7290052,33.0967264 Z" id="Combined-Shape" fill="#FFEAB0" transform="translate(36.668605, 39.535448) scale(-1, 1) translate(-36.668605, -39.535448) "></path>
                        <g id="Rectangle-3" transform="translate(31.161155, 56.658269) rotate(-4.000000) translate(-31.161155, -56.658269) translate(21.713481, 51.937598)">
                            <mask id="mask-7" fill="white">
                                <use xlink:href="#path-6"></use>
                            </mask>
                            <use id="Mask" fill="#D85030" transform="translate(9.572256, 4.809308) rotate(3.000000) translate(-9.572256, -4.809308) " xlink:href="#path-6"></use>
                            <rect fill="#C42D3C" mask="url(#mask-7)" transform="translate(8.742610, 6.987258) rotate(3.000000) translate(-8.742610, -6.987258) " x="-1.06523913" y="5.38405916" width="19.6156992" height="3.20639779"></rect>
                        </g>
                        <ellipse id="Oval-23" fill="#FFCF4B" cx="11.6855813" cy="47.1006072" rx="3.3599999" ry="3.34641723"></ellipse>
                        <ellipse id="Oval-23-Copy" fill="#FFCF4B" transform="translate(48.937791, 46.833138) scale(-1, 1) translate(-48.937791, -46.833138) " cx="48.9377908" cy="46.8331376" rx="4.2750001" ry="4.25771858"></ellipse>
                        <g id="Group-10" transform="translate(37.611427, 74.814660) rotate(51.000000) translate(-37.611427, -74.814660) translate(35.611427, 61.814660)">
                            <g id="Path-16" transform="translate(-0.000000, 0.641026)">
                                <mask id="mask-9" fill="white">
                                    <use xlink:href="#path-8"></use>
                                </mask>
                                <use id="Mask" fill="#535C6E" xlink:href="#path-8"></use>
                                <polygon fill="#FFFFFF" mask="url(#mask-9)" points="0.285714286 20.1923077 0.571428571 18.9102564 1.42857143 21.474359 2 19.8717949 2.85714286 21.474359 3.42857143 19.8717949 4.28571429 21.474359 1.71428571 24.3589744 -0.285714286 20.8333333"></polygon>
                            </g>
                            <rect id="Rectangle-11" fill="#FFF8CD" x="1.42108547e-14" y="3.20512821" width="4" height="1.28205128"></rect>
                            <path d="M-7.10542736e-14,1.28205128 C-7.10542736e-14,0.573993911 0.573102474,8.52651283e-14 1.28764296,8.52651283e-14 L2.71235704,8.52651283e-14 C3.42350261,8.52651283e-14 4,0.569057465 4,1.28205128 L4,2.56410256 L-7.10542736e-14,2.56410256 L-7.10542736e-14,1.28205128 Z" id="Rectangle-8" fill="#F75C4C"></path>
                        </g>
                        <g id="Group-29" transform="translate(34.215116, 32.407821)">
                            <g id="Path-13" transform="translate(0.533903, 0.726257)">
                                <mask id="mask-11" fill="white">
                                    <use xlink:href="#path-10"></use>
                                </mask>
                                <use id="Mask" fill="#FFFFFF" xlink:href="#path-10"></use>
                                <path d="M-1.26064741,6.17318436 L3.63372093,3.87337058 C3.63372093,3.87337058 1.80811917,5.41486368 2.54360465,6.41527002 C3.27909013,7.41567636 5.42062871,8.19017835 6.54069767,7.82743637 C7.66076664,7.4646944 6.90406977,5.00310366 6.90406977,5.00310366 C6.90406977,5.00310366 7.48217497,7.50649291 8.72093023,7.82743637 C9.9596855,8.14837984 11.9023744,7.32926097 12.3546512,6.41527002 C12.8069279,5.50127906 10.5377907,4.15580385 10.5377907,4.15580385 L15.4544689,6.17318436 L16.7151163,10.7324643 L1.45348837,11.0148976 L-1.26064741,6.17318436 Z" fill="#F75C4C" mask="url(#mask-11)"></path>
                            </g>
                            <ellipse id="Oval-28" fill="#333333" cx="7.89436834" cy="3.72625698" rx="2" ry="2"></ellipse>
                            <path d="M0.533903222,1.58949995 L15.7955311,1.58949995" id="Path-12" stroke="#333333" stroke-width="3.1789999" stroke-linecap="round"></path>
                        </g>
                        <g id="Group-30" transform="translate(28.000000, 57.000000)">
                            <rect id="Rectangle-4" fill="#AFD5F2" transform="translate(38.825148, 23.595641) scale(-1, 1) rotate(196.000000) translate(-38.825148, -23.595641) " x="29.3774733" y="2.17105976" width="18.8953488" height="42.849162" rx="9.44767442"></rect>
                            <path d="M15.7853121,14.4334276 L3.44923182,14.4334276 L3.44923182,25.0755471 L12.8725977,25.0755471 C13.8745303,28.052307 16.194692,30.1373382 18.8969062,30.1373382 C22.5156557,30.1373382 25.4492318,26.3980405 25.4492318,21.7853829 C25.4492318,17.1727254 22.5156557,13.4334276 18.8969062,13.4334276 C17.7707675,13.4334276 16.7109827,13.7955512 15.7853121,14.4334276 Z" id="Combined-Shape" fill="#F4DC97" transform="translate(14.449232, 21.785383) scale(-1, 1) rotate(-47.000000) translate(-14.449232, -21.785383) "></path>
                            <rect id="Rectangle-4" fill="#C8E6FE" transform="translate(32.825148, 37.595641) rotate(141.000000) translate(-32.825148, -37.595641) " x="23.3774733" y="16.1710598" width="18.8953488" height="42.849162" rx="9.44767442"></rect>
                        </g>
                        <g id="Group-29" transform="translate(9.000000, 33.000000)">
                            <g id="Path-13" transform="translate(0.500534, 0.660234)">
                                <mask id="mask-13" fill="white">
                                    <use xlink:href="#path-12"></use>
                                </mask>
                                <use id="Mask" fill="#FFFFFF" xlink:href="#path-12"></use>
                                <path d="M-1.18185694,5.61198578 L3.40661337,3.52124598 C3.40661337,3.52124598 1.69511173,4.92260334 2.38462936,5.83206365 C3.07414699,6.74152396 5.08183941,7.44561668 6.13190407,7.11585125 C7.18196873,6.78608582 6.47256541,4.54827606 6.47256541,4.54827606 C6.47256541,4.54827606 7.01453903,6.82408446 8.17587209,7.11585125 C9.33720515,7.40761804 11.158476,6.66296452 11.5824855,5.83206365 C12.0064949,5.00116278 9.87917878,3.7780035 9.87917878,3.7780035 L14.4885646,5.61198578 L15.6704215,9.75678573 L1.36264535,10.0135433 L-1.18185694,5.61198578 Z" fill="#F75C4C" mask="url(#mask-13)"></path>
                            </g>
                            <ellipse id="Oval-28" fill="#333333" cx="7.40097032" cy="3.38750635" rx="1.875" ry="1.81818182"></ellipse>
                            <path d="M0.50053427,1.44499995 L14.8083104,1.44499995" id="Path-12" stroke="#333333" stroke-width="2.88999991" stroke-linecap="round"></path>
                        </g>
                        <path d="M34.2151163,30.2009005 L44.5,25.5" id="Path-10" stroke="#7F411A" stroke-width="3.63128492" stroke-linecap="round"></path>
                        <path d="M10.505814,28.6871508 L20.5,28.6871508" id="Path-11" stroke="#7F411A" stroke-width="3.63128492" stroke-linecap="round"></path>
                    </g>
                    <path d="M18.0866592,7.97593667 C18.0866592,7.97593667 21.6871202,12.4946753 32.7030766,18.1368562 C34.294976,18.9521993 35.9312952,19.7278053 37.5818757,20.4676537 C37.7416888,20.5392875 37.4032999,20.0096908 37.4424348,19.8404385 C37.4570756,19.7771193 38.234769,20.6381767 38.3043293,20.5525746 C38.3738896,20.4669725 34.2198077,16.0175241 34.2198077,16.0175241 C34.2198077,16.0175241 36.9060643,18.520558 38.4168048,20.0653896 C39.9275453,21.6102211 39.3180619,21.231148 39.3180619,21.231148 C39.3180619,21.231148 56.3908239,27.5761417 61.5421661,30.3377703 C61.7637709,30.4565724 61.9633137,30.568743 62.1384862,30.6734918 C62.291892,30.7652246 62.4316174,30.682425 62.5555109,30.5027984 C62.5711986,30.4800536 61.0379226,29.767734 60.8644762,29.5237183 C60.8071507,29.4430691 62.2917325,30.0192873 62.3260313,29.8611449 C62.3603301,29.7030024 61.1040462,28.4391612 61.1268332,28.3873251 C61.1747529,28.2783168 62.8008285,29.9896349 62.8419647,29.863879 C63.0634958,29.1866435 63.1880489,28.3500422 63.1880489,28.3500422 C63.1880489,28.3500422 64.1372696,28.8369071 64.4246529,29.6618388 C64.7120362,30.4867705 64.5175494,32.1110027 64.8366453,32.322715 C64.998775,32.430284 66.2456753,32.7358693 66.897861,32.2854321 C67.5500467,31.8349949 67.7224726,30.9363525 67.7224726,30.9363525 L71.1608011,31.9008122 C71.1608011,31.9008122 71.2825263,33.2977118 70.6358295,34.1747142 C69.9891326,35.0517166 69.8582541,35.0215009 69.8582541,35.0215009 L75.3965718,40.9755392 C76.8670876,42.5564358 77.4709294,45.4726555 76.7587086,47.5076295 C76.7587086,47.5076295 76.8403487,47.1958783 76.6403081,47.8766066 C76.5981579,48.0200419 79.0762333,48.4389843 79.0762333,48.4389843 C79.0762333,48.4389843 78.0840151,48.7019467 77.4399898,48.8582164 C76.7959645,49.014486 76.9062207,48.9192474 76.9025421,48.9634522 C76.8913409,49.0980562 79.8256523,49.6383054 79.8256523,49.6383054 C79.8256523,49.6383054 75.9933041,50.7064358 75.965455,50.7997168 C75.1950303,53.3802685 74.2314495,56.5855013 73.2372652,58.9299597 C71.7673334,62.396313 69.9769634,63.4024892 69.9769634,63.4024892 L67.0538532,62.727636 C67.0538532,62.727636 63.2580754,65.0256599 64.1961823,62.0678907 C65.1342891,59.1101215 65.3452254,53.0786785 65.3452254,53.0786785 C65.3763934,52.4315624 64.949534,51.5988301 64.4027408,51.241717 C64.4027408,51.241717 57.6431282,46.3808071 45.0596453,42.4143182 C44.9979069,42.3948573 43.6171612,42.5212955 42.9493483,42.664196 C42.2815354,42.8070964 41.3753177,42.8139544 41.3753177,42.8139544 L42.5746388,42.0645354 C42.5746388,42.0645354 41.6466734,42.2497623 41.1360492,42.2455629 C40.625425,42.2413635 37.9650224,42.0266257 37.9650224,42.0266257 C37.9650224,42.0266257 42.0412414,41.5636031 41.6795369,41.4599441 C40.7403651,41.1907919 39.7767618,40.9292574 38.7896341,40.6775461 C22.9677389,36.6430634 6.18256661,37.7115689 6.18256661,37.7115689 C6.18256661,37.7115689 9.76148224,34.2900806 11.7579011,32.7805344 C12.5552749,32.1776185 13.2091653,31.6612746 14.3558166,30.9313385 C14.437606,30.8792729 13.0736518,30.6123204 12.1738867,30.4276003 C11.9055181,30.3725047 14.6355474,30.6988367 14.4428529,30.5543429 C14.2501583,30.4098491 9.86188943,29.9875832 9.9711513,29.9190587 C10.2057858,29.7719059 15.9623008,29.98747 16.1289686,29.8839095 C17.3192392,29.1443245 18.2373439,28.5966263 18.2373439,28.5966263 C18.2373439,28.5966263 14.9554736,27.0039645 13.1140635,26.355247 C11.2726535,25.7065296 6.78530547,24.5621436 6.78530547,24.5621436 C6.78530547,24.5621436 10.1003692,22.4701895 13.5661177,21.4242125 C17.0318662,20.3782355 21.2510382,20.3782355 21.2510382,20.3782355 C21.2510382,20.3782355 19.2921369,17.8380056 18.8400828,15.1483505 C18.3880286,12.4586953 18.0866592,7.97593667 18.0866592,7.97593667 Z" id="Path-15" fill="#7F411A" transform="translate(43.004109, 35.777150) rotate(-13.000000) translate(-43.004109, -35.777150) "></path>
                    <ellipse id="Oval-21" fill="#FFEAB0" cx="72.7840501" cy="56.3496944" rx="6.31893382" ry="6.29338979"></ellipse>
                </g>
                <rect id="Rectangle-34" fill="#FBBB74" x="35" y="118" width="112" height="27.2393921"></rect>
                <text id="悬梁刺股-copy" font-family="HYk2gj, HYLingXinJ" font-size="26" font-weight="normal" fill="#FFFFFF">
                    <tspan x="40" y="148">悬梁刺股</tspan>
                </text>
                <g id="Group-31" transform="translate(20.000000, 83.000000)">
                    <path d="M0.230342308,5.76991779 C-0.138696675,2.58328019 2.16319185,0 5.37153564,0 L60.3651389,0 C63.5735806,0 66.4458525,2.57708416 66.7832494,5.78183504 L71.2209302,47.9329609 L10.9218549,47.9329609 C7.71380756,47.9329609 4.81472366,45.3558767 4.44496713,42.1630431 L0.230342308,5.76991779 Z" id="Rectangle-40" fill="#D8D8D8"></path>
                    <path d="M7.26744186,47.2067039 L70.494186,47.2067039 L70.494186,53.0167598 L12.1862011,53.0167598 C10.5781904,53.0167598 8.84896497,51.7845964 8.32394334,50.2648636 L7.26744186,47.2067039 Z" id="Rectangle-41" fill="#06343E"></path>
                    <path d="M70.494186,47.2067039 L105.377907,47.2067039 L105.377907,53.0167598 L74.5105877,53.0167598 C72.9040013,53.0167598 71.3585778,51.7417184 71.0576286,50.1627945 L70.494186,47.2067039 Z" id="Rectangle-41" fill="#D8D8D8" transform="translate(87.936047, 50.111732) scale(-1, 1) translate(-87.936047, -50.111732) "></path>
                    <ellipse id="Oval-29" fill="#FFFFFF" cx="31.6125583" cy="20.9725945" rx="5.63000011" ry="5.62622581"></ellipse>
                </g>
                <g id="Group-6" transform="translate(3.000000, 116.000000)">
                    <g id="Group-5">
                        <g id="Rectangle-12-Copy">
                            <use fill="#FFFFFF" fill-rule="evenodd" xlink:href="#path-14"></use>
                            <path stroke="#B96941" stroke-width="4" d="M2.11702615,7.34464317 C1.80129123,6.51323496 2.10912316,6.01970352 2.98544133,5.94198737 C3.07909122,5.93297919 3.23380694,5.91824208 3.46350612,5.89675271 C3.84771453,5.86080832 4.30229627,5.81907563 4.82494462,5.77203673 C6.3198978,5.6374894 8.05945697,5.48750056 10.0251658,5.32592688 C15.644191,4.86406471 21.9465382,4.40211995 28.7844925,3.97093877 C48.3200874,2.73908188 68.2284114,2 87.3251733,2 C106.421485,2 126.141628,2.73765425 145.364115,3.96711835 C152.092256,4.39744807 158.276976,4.8584747 163.778379,5.31941117 C165.702856,5.48065402 167.404114,5.63033218 168.864673,5.76459633 C169.375253,5.81153217 169.819109,5.85317144 170.194057,5.88903295 C170.418159,5.91046695 170.568987,5.92516106 170.644355,5.93263405 C171.535192,6.01485615 171.830593,6.49169969 171.512459,7.30963408 L164.409943,25.5704807 C163.430353,28.0890467 163.416696,31.9428655 164.377977,34.4700357 L171.533705,53.2821621 C171.789293,53.9540942 171.764187,53.9867057 171.038009,53.9142613 C170.976146,53.9074085 170.819503,53.8905831 170.589085,53.8662847 C170.206641,53.8259547 169.75482,53.7792203 169.235818,53.7266155 C167.754887,53.5765117 166.031624,53.4093374 164.083605,53.2293653 C158.521013,52.7154525 152.270522,52.2016487 145.472672,51.7221444 C126.049337,50.3520682 106.126065,49.5299921 86.8246217,49.5299921 C67.5231773,49.5299921 47.6000946,50.3520683 28.1770739,51.7221446 C21.3793339,52.2016489 15.1289608,52.7154528 9.56648628,53.2293657 C7.61850869,53.4093378 5.89528412,53.5765122 4.41438734,53.7266159 C3.89539731,53.7792208 3.44358628,53.8259552 3.06115147,53.8662852 C2.83073876,53.8905836 2.67410025,53.9074091 2.59343333,53.9162277 C1.89065737,53.9876663 1.88116517,53.9752181 2.14282217,53.3036093 L9.23465046,35.1006414 C10.2186728,32.5748997 10.2364124,28.7249967 9.27275371,26.1874449 L2.11702615,7.34464317 L2.11702615,7.34464317 Z"></path>
                        </g>
                        <text id="鞠躬尽瘁" font-family="HYk2gj, HYLingXinJ" font-size="26" font-weight="normal" fill="#B96941">
                            <tspan x="36" y="35">鞠躬尽瘁</tspan>
                        </text>
                    </g>
                </g>
            </g>
        </g>
    </g>
</svg>